{"glyphs":{"0":{"ha":960,"x_min":49,"x_max":911,"o":"m 481 -14 q 165 114 281 -14 q 49 465 49 242 q 165 817 49 689 q 481 944 281 944 q 795 817 679 944 q 911 465 911 689 q 795 114 911 242 q 481 -14 679 -14 m 481 81 q 807 465 807 81 q 481 850 807 850 q 153 465 153 850 q 481 81 153 81 z "},"1":{"ha":414,"x_min":14,"x_max":332,"o":"m 332 0 l 233 0 l 233 740 l 14 740 l 14 815 l 63 815 q 183 840 140 815 q 251 931 225 865 l 332 931 l 332 0 z "},"2":{"ha":850,"x_min":57,"x_max":801,"o":"m 799 0 l 61 0 l 61 68 q 117 277 61 203 q 314 403 174 351 l 522 476 q 663 556 624 514 q 701 671 701 597 q 440 851 701 851 q 156 635 156 851 l 156 618 l 57 618 l 57 631 q 153 855 57 765 q 443 944 250 944 q 711 868 621 944 q 801 671 801 792 q 739 501 801 567 q 549 392 676 435 l 358 328 q 204 235 246 288 q 163 82 163 182 l 371 90 l 799 90 l 799 0 z "},"3":{"ha":882,"x_min":49,"x_max":838,"o":"m 449 -14 q 148 72 247 -14 q 49 296 49 157 l 49 318 l 151 318 l 151 300 q 217 133 151 186 q 446 81 283 81 q 669 125 601 81 q 738 269 738 169 q 514 443 738 443 l 263 443 l 263 528 l 493 528 q 710 685 710 528 q 649 810 710 771 q 442 850 588 850 q 219 797 286 850 q 151 631 151 743 l 151 618 l 49 618 l 49 635 q 149 858 49 772 q 449 944 250 944 q 714 880 619 944 q 808 700 808 815 q 763 567 808 621 q 631 497 717 513 l 631 488 q 784 409 731 468 q 838 258 838 350 q 734 58 838 129 q 449 -14 631 -14 z "},"4":{"ha":939,"x_min":35,"x_max":904,"o":"m 731 0 l 631 0 l 631 197 l 35 197 l 35 269 l 614 931 l 731 931 l 731 288 l 904 288 l 904 197 l 731 197 l 731 0 m 171 288 l 631 288 l 631 811 l 624 811 l 171 296 l 171 288 z "},"5":{"ha":881,"x_min":51,"x_max":829,"o":"m 451 -14 q 157 64 263 -14 q 51 272 51 142 l 51 292 l 153 292 l 153 272 q 453 76 153 76 q 656 127 588 76 q 725 290 725 178 q 657 451 725 401 q 454 500 589 500 q 160 425 271 500 l 156 426 l 156 425 l 64 439 l 111 931 l 789 931 l 789 840 l 197 840 l 161 485 l 168 483 q 301 553 217 525 q 483 582 386 582 q 735 506 640 582 q 829 290 829 429 q 728 68 829 150 q 451 -14 626 -14 z "},"6":{"ha":936,"x_min":58,"x_max":876,"o":"m 486 -14 q 160 101 261 -14 q 58 474 58 215 q 165 818 58 692 q 483 944 272 944 q 749 865 646 944 q 851 647 851 785 l 851 638 l 744 638 l 744 647 q 483 850 744 850 q 235 759 310 850 q 161 478 161 668 l 161 394 l 171 394 q 288 526 196 475 q 515 576 381 576 q 781 499 685 576 q 876 285 876 421 q 774 67 876 147 q 486 -14 671 -14 m 483 81 q 703 133 632 81 q 775 292 775 185 q 485 501 775 501 q 262 448 343 501 q 181 300 181 394 q 258 136 181 192 q 483 81 336 81 z "},"7":{"ha":764,"x_min":14,"x_max":753,"o":"m 347 -1 l 238 -1 q 261 240 238 126 q 321 435 285 353 q 413 595 357 518 q 520 725 468 672 q 640 833 572 778 l 640 840 l 14 840 l 14 931 l 753 931 l 753 850 q 443 469 539 661 q 347 -1 347 278 z "},"8":{"ha":894,"x_min":36,"x_max":858,"o":"m 447 -14 q 144 54 253 -14 q 36 253 36 122 q 97 403 36 340 q 269 488 157 465 l 269 497 q 116 567 171 511 q 61 703 61 622 q 161 878 61 813 q 447 944 261 944 q 734 879 635 944 q 833 703 833 814 q 778 567 833 622 q 625 497 724 511 l 625 488 q 799 403 739 465 q 858 253 858 342 q 749 54 858 122 q 447 -14 640 -14 m 160 685 q 447 521 160 521 q 735 685 735 521 q 669 808 735 767 q 447 850 604 850 q 226 808 292 850 q 160 685 160 767 m 447 81 q 685 125 613 81 q 758 268 758 169 q 683 405 758 360 q 447 450 608 450 q 211 405 286 450 q 136 268 136 360 q 208 124 136 168 q 447 81 281 81 z "},"9":{"ha":936,"x_min":58,"x_max":876,"o":"m 454 -14 q 189 66 292 -14 q 86 283 86 146 l 86 293 l 193 293 l 193 283 q 454 81 193 81 q 699 174 625 81 q 774 463 774 268 l 774 547 l 764 547 q 646 408 738 463 q 419 354 554 354 q 154 433 250 354 q 58 646 58 511 q 161 864 58 783 q 449 944 264 944 q 775 833 674 944 q 876 467 876 721 q 769 116 876 246 q 454 -14 663 -14 m 450 429 q 673 485 592 429 q 754 642 754 542 q 676 797 754 743 q 453 850 599 850 q 231 798 303 850 q 160 639 160 746 q 450 429 160 429 z "},"\r":{"ha":833,"x_min":0,"x_max":0,"o":""}," ":{"ha":256,"x_min":0,"x_max":0,"o":""},"!":{"ha":244,"x_min":61,"x_max":183,"o":"m 168 306 l 76 306 q 69 587 76 388 q 61 833 61 786 l 61 931 l 183 931 l 183 833 q 176 586 183 786 q 168 306 168 386 m 178 0 l 67 0 l 67 188 l 178 188 l 178 0 z "},"\"":{"ha":354,"x_min":38,"x_max":315,"o":"m 292 618 l 238 618 l 214 779 l 214 931 l 315 931 l 315 779 l 292 618 m 115 618 l 63 618 l 38 779 l 38 931 l 139 931 l 139 779 l 115 618 z "},"#":{"ha":1158,"x_min":28,"x_max":1131,"o":"m 251 0 l 151 0 l 239 225 l 28 225 l 28 314 l 274 314 l 383 604 l 147 604 l 147 693 l 419 693 l 510 931 l 608 931 l 518 693 l 815 693 l 906 931 l 1004 931 l 914 693 l 1131 693 l 1131 604 l 878 604 l 768 314 l 1011 314 l 1011 225 l 733 225 l 647 0 l 547 0 l 633 225 l 338 225 l 251 0 m 481 606 l 368 313 l 672 313 l 783 606 l 481 606 z "},"$":{"ha":860,"x_min":43,"x_max":815,"o":"m 469 -139 l 378 -139 l 378 -11 q 128 85 213 3 q 43 294 43 168 l 43 303 l 143 303 l 143 285 q 214 131 143 182 q 444 79 285 79 q 715 236 715 79 q 669 347 715 311 q 517 406 624 383 l 319 443 q 120 525 193 468 q 47 690 47 582 q 130 861 47 789 q 378 943 213 933 l 378 1069 l 469 1069 l 469 943 q 717 847 633 931 q 801 636 801 763 l 801 628 l 701 628 l 701 644 q 633 799 701 747 q 415 851 564 851 q 147 697 147 851 q 192 588 147 622 q 346 531 236 554 l 542 492 q 815 244 815 439 q 728 65 815 139 q 469 -14 640 -8 l 469 -139 z "},"%":{"ha":1103,"x_min":35,"x_max":1068,"o":"m 267 483 q 96 551 157 483 q 35 715 35 618 q 96 879 35 813 q 267 946 157 946 q 439 879 378 946 q 500 715 500 813 q 439 551 500 618 q 267 483 378 483 m 206 0 l 107 0 l 897 931 l 996 931 l 206 0 m 267 556 q 422 715 422 556 q 267 874 422 874 q 113 715 113 874 q 267 556 113 556 m 836 -14 q 664 53 725 -14 q 603 217 603 119 q 664 381 603 314 q 836 447 725 447 q 1007 381 946 447 q 1068 217 1068 314 q 1007 53 1068 119 q 836 -14 946 -14 m 836 58 q 990 217 990 58 q 836 375 990 375 q 681 217 681 375 q 836 58 681 58 z "},"&":{"ha":938,"x_min":18,"x_max":950,"o":"m 390 -14 q 116 54 214 -14 q 18 251 18 122 q 72 408 18 347 q 224 488 125 469 l 224 497 q 92 567 138 513 q 46 700 46 622 q 130 875 46 814 q 365 936 214 936 l 581 936 l 581 844 l 356 844 q 194 807 243 844 q 144 686 144 769 q 364 528 144 528 l 694 528 l 694 686 l 792 686 l 792 528 l 950 528 l 950 443 l 792 443 l 792 314 q 689 72 792 158 q 390 -14 586 -14 m 393 76 q 625 131 556 76 q 694 310 694 185 l 694 443 l 340 443 q 117 260 117 443 q 181 120 117 164 q 393 76 246 76 z "},"'":{"ha":178,"x_min":38,"x_max":139,"o":"m 115 618 l 63 618 l 38 779 l 38 931 l 139 931 l 139 779 l 115 618 z "},"(":{"ha":388,"x_min":58,"x_max":374,"o":"m 374 -53 l 322 -100 q 58 465 58 161 q 322 1031 58 769 l 374 983 q 294 878 321 917 q 231 772 267 839 q 180 631 196 706 q 164 465 164 556 q 180 300 164 375 q 231 158 196 225 q 294 53 267 92 q 374 -53 321 14 z "},")":{"ha":403,"x_min":25,"x_max":339,"o":"m 25 983 l 75 1031 q 339 465 339 769 q 75 -100 339 161 l 25 -53 q 104 52 76 13 q 167 158 132 92 q 217 300 201 225 q 233 465 233 375 q 217 631 233 556 q 167 772 201 706 q 104 878 132 839 q 25 983 76 918 z "},"*":{"ha":496,"x_min":35,"x_max":461,"o":"m 243 665 l 154 531 l 92 576 l 193 701 l 189 710 l 35 753 l 60 828 l 208 769 l 217 775 l 208 936 l 288 936 l 279 775 l 288 769 l 436 828 l 461 753 l 306 710 l 301 701 l 404 576 l 340 531 l 253 665 l 243 665 z "},"+":{"ha":644,"x_min":51,"x_max":593,"o":"m 367 194 l 278 194 l 278 424 l 51 424 l 51 507 l 278 507 l 278 736 l 367 736 l 367 507 l 593 507 l 593 424 l 367 424 l 367 194 z "},",":{"ha":206,"x_min":40,"x_max":164,"o":"m 69 -122 l 40 -122 l 40 -62 l 68 -62 q 90 -57 83 -62 q 96 -33 96 -51 l 96 0 l 42 0 l 42 193 l 164 193 l 164 -32 q 69 -122 164 -122 z "},"-":{"ha":461,"x_min":42,"x_max":419,"o":"m 419 363 l 42 363 l 42 450 l 419 450 l 419 363 z "},".":{"ha":206,"x_min":42,"x_max":164,"o":"m 164 0 l 42 0 l 42 193 l 164 193 l 164 0 z "},"/":{"ha":547,"x_min":-28,"x_max":578,"o":"m 78 -28 l -28 -28 l 472 958 l 578 958 l 78 -28 z "},":":{"ha":206,"x_min":42,"x_max":164,"o":"m 164 493 l 42 493 l 42 686 l 164 686 l 164 493 m 164 0 l 42 0 l 42 193 l 164 193 l 164 0 z "},";":{"ha":206,"x_min":40,"x_max":164,"o":"m 164 493 l 42 493 l 42 686 l 164 686 l 164 493 m 69 -122 l 40 -122 l 40 -62 l 68 -62 q 90 -57 83 -62 q 96 -33 96 -51 l 96 0 l 42 0 l 42 193 l 164 193 l 164 -32 q 69 -122 164 -122 z "},"<":{"ha":635,"x_min":40,"x_max":582,"o":"m 40 521 l 582 765 l 582 667 l 132 469 l 132 461 l 582 264 l 582 165 l 40 410 l 40 521 z "},"=":{"ha":644,"x_min":51,"x_max":593,"o":"m 593 568 l 51 568 l 51 651 l 593 651 l 593 568 m 593 278 l 51 278 l 51 363 l 593 363 l 593 278 z "},">":{"ha":635,"x_min":51,"x_max":593,"o":"m 593 410 l 51 165 l 51 264 l 501 461 l 501 469 l 51 667 l 51 765 l 593 521 l 593 410 z "},"?":{"ha":790,"x_min":14,"x_max":753,"o":"m 393 300 l 294 300 l 294 344 q 411 496 294 446 l 511 542 q 620 610 586 576 q 654 701 654 644 q 404 854 654 854 q 179 801 247 854 q 111 642 111 749 l 111 614 l 14 614 l 14 640 q 113 859 14 774 q 408 944 211 944 q 667 877 581 944 q 753 704 753 810 q 561 471 753 554 l 461 428 q 407 392 421 410 q 393 339 393 374 l 393 300 m 401 0 l 290 0 l 290 188 l 401 188 l 401 0 z "},"@":{"ha":1225,"x_min":18,"x_max":1197,"o":"m 560 57 q 366 132 439 57 q 293 340 293 207 q 367 548 293 472 q 561 624 440 624 q 708 580 650 624 q 786 465 765 536 l 793 465 l 793 611 l 881 611 l 881 244 q 903 162 881 188 q 976 136 925 136 q 1077 195 1044 136 q 1110 394 1110 254 q 625 831 1110 831 q 108 349 108 831 q 236 -10 108 107 q 604 -128 364 -128 q 849 -90 725 -128 l 867 -160 q 597 -207 747 -207 q 174 -57 331 -207 q 18 349 18 93 q 184 761 18 607 q 628 915 350 915 q 1042 778 888 915 q 1197 401 1197 642 q 1136 151 1197 244 q 971 57 1075 57 q 844 99 890 57 q 789 214 797 142 l 785 214 q 706 101 763 144 q 560 57 649 57 m 386 340 q 585 131 386 131 q 730 182 674 131 q 786 328 786 233 l 786 353 q 730 497 786 446 q 585 549 674 549 q 435 498 485 549 q 386 340 386 447 z "},"A":{"ha":994,"x_min":7,"x_max":988,"o":"m 115 0 l 7 0 l 428 931 l 565 931 l 988 0 l 876 0 l 751 274 l 240 274 l 115 0 m 440 715 l 281 363 l 711 363 l 550 715 l 499 836 l 490 836 l 440 715 z "},"B":{"ha":901,"x_min":72,"x_max":867,"o":"m 575 0 l 72 0 l 72 931 l 561 931 q 763 869 688 931 q 838 700 838 808 q 790 562 838 617 q 650 493 743 507 l 650 485 q 811 407 756 467 q 867 257 867 347 q 788 69 867 138 q 575 0 710 0 m 171 840 l 171 525 l 544 525 q 739 682 739 525 q 693 801 739 763 q 553 840 647 840 l 171 840 m 171 440 l 171 90 l 567 90 q 767 267 767 90 q 567 440 767 440 l 171 440 z "},"C":{"ha":983,"x_min":49,"x_max":935,"o":"m 513 -14 q 178 117 307 -14 q 49 465 49 249 q 178 813 49 682 q 513 944 307 944 q 815 849 696 944 q 935 599 935 754 l 935 582 l 828 582 l 828 599 q 747 783 828 718 q 514 849 667 849 q 246 751 339 849 q 153 465 153 654 q 246 179 153 276 q 514 82 339 82 q 747 147 667 82 q 828 332 828 213 l 828 349 l 935 349 l 935 332 q 816 81 935 176 q 513 -14 697 -14 z "},"D":{"ha":996,"x_min":86,"x_max":947,"o":"m 490 0 l 86 0 l 86 931 l 490 931 q 824 805 700 931 q 947 465 947 679 q 824 126 947 251 q 490 0 700 0 m 490 840 l 186 840 l 186 90 l 490 90 q 843 465 843 90 q 490 840 843 840 z "},"E":{"ha":844,"x_min":83,"x_max":790,"o":"m 790 0 l 83 0 l 83 931 l 790 931 l 790 840 l 182 840 l 182 513 l 769 513 l 769 424 l 182 424 l 182 90 l 790 90 l 790 0 z "},"F":{"ha":829,"x_min":83,"x_max":781,"o":"m 182 0 l 83 0 l 83 931 l 781 931 l 781 840 l 182 840 l 182 485 l 760 485 l 760 396 l 182 396 l 182 0 z "},"G":{"ha":1008,"x_min":49,"x_max":943,"o":"m 500 -14 q 174 117 300 -14 q 49 465 49 249 q 179 813 49 682 q 519 944 310 944 q 823 851 704 944 q 942 606 942 758 l 942 593 l 835 593 l 835 606 q 753 785 835 722 q 518 849 671 849 q 247 751 340 849 q 153 465 153 654 q 246 179 153 276 q 514 82 339 82 q 762 147 681 82 q 843 346 843 211 l 843 381 l 474 381 l 474 458 l 943 458 l 943 0 l 854 0 l 854 203 l 847 203 q 721 40 813 94 q 500 -14 629 -14 z "},"H":{"ha":963,"x_min":83,"x_max":879,"o":"m 182 0 l 83 0 l 83 931 l 182 931 l 182 514 l 781 514 l 781 931 l 879 931 l 879 0 l 781 0 l 781 424 l 182 424 l 182 0 z "},"I":{"ha":264,"x_min":83,"x_max":182,"o":"m 182 0 l 83 0 l 83 931 l 182 931 l 182 0 z "},"J":{"ha":856,"x_min":35,"x_max":779,"o":"m 407 -14 q 126 81 217 -14 q 35 335 35 176 l 35 382 l 138 382 l 138 331 q 200 144 138 204 q 407 83 263 83 q 613 143 550 83 q 676 326 676 203 l 676 931 l 779 931 l 779 332 q 689 81 779 175 q 407 -14 599 -14 z "},"K":{"ha":936,"x_min":83,"x_max":918,"o":"m 182 0 l 83 0 l 83 931 l 182 931 l 182 511 l 506 511 l 799 931 l 917 931 l 590 471 l 918 0 l 800 0 l 508 415 l 182 415 l 182 0 z "},"L":{"ha":800,"x_min":83,"x_max":772,"o":"m 772 0 l 83 0 l 83 931 l 182 931 l 182 90 l 772 90 l 772 0 z "},"M":{"ha":1229,"x_min":83,"x_max":1147,"o":"m 182 0 l 83 0 l 83 931 l 218 931 l 531 324 l 613 151 l 619 151 l 700 324 l 1011 931 l 1147 931 l 1147 0 l 1049 0 l 1049 656 l 1051 781 l 1043 781 l 985 656 l 675 56 l 556 56 l 246 656 l 186 781 l 179 781 l 182 656 l 182 0 z "},"N":{"ha":978,"x_min":83,"x_max":896,"o":"m 182 0 l 83 0 l 83 931 l 192 931 l 679 299 l 792 143 l 800 143 l 797 296 l 797 931 l 896 931 l 896 0 l 788 0 l 303 625 l 186 782 l 179 782 l 182 626 l 182 0 z "},"O":{"ha":1039,"x_min":49,"x_max":990,"o":"m 518 -14 q 179 117 310 -14 q 49 465 49 249 q 179 813 49 682 q 518 944 310 944 q 860 813 729 944 q 990 465 990 682 q 860 117 990 249 q 518 -14 729 -14 m 247 179 q 293 131 247 179 q 518 82 340 82 q 791 179 696 82 q 886 465 886 276 q 791 751 886 654 q 518 849 696 849 q 247 751 340 849 q 153 465 153 654 q 247 179 153 276 z "},"P":{"ha":878,"x_min":83,"x_max":854,"o":"m 182 0 l 83 0 l 83 931 l 511 931 q 760 847 665 931 q 854 617 854 763 q 760 385 854 469 q 511 301 665 301 l 182 301 l 182 0 m 503 840 l 182 840 l 182 392 l 503 392 q 691 446 628 392 q 754 617 754 500 q 503 840 754 840 z "},"Q":{"ha":1039,"x_min":49,"x_max":990,"o":"m 518 -14 q 179 117 310 -14 q 49 465 49 249 q 179 813 49 682 q 518 944 310 944 q 860 813 729 944 q 990 465 990 682 q 892 154 990 279 q 626 -4 793 29 l 768 -196 l 649 -196 l 522 -14 l 518 -14 m 247 179 q 293 131 247 179 q 518 82 340 82 q 791 179 696 82 q 886 465 886 276 q 791 751 886 654 q 518 849 696 849 q 247 751 340 849 q 153 465 153 654 q 247 179 153 276 z "},"R":{"ha":911,"x_min":83,"x_max":881,"o":"m 182 0 l 83 0 l 83 931 l 539 931 q 776 859 688 931 q 865 661 865 788 q 787 475 865 544 q 578 403 708 406 l 578 396 q 650 357 621 385 q 706 285 679 329 l 881 0 l 767 0 l 601 269 q 517 356 564 331 q 382 381 471 381 l 182 381 l 182 0 m 182 840 l 182 460 l 538 460 q 763 650 763 460 q 538 840 763 840 l 182 840 z "},"S":{"ha":860,"x_min":43,"x_max":815,"o":"m 444 -14 q 145 71 247 -14 q 43 294 43 156 l 43 303 l 143 303 l 143 285 q 214 131 143 182 q 444 79 285 79 q 715 236 715 79 q 669 347 715 311 q 517 406 624 383 l 319 443 q 120 525 193 468 q 47 690 47 582 q 142 870 47 796 q 422 944 236 944 q 706 858 610 944 q 801 636 801 772 l 801 628 l 701 628 l 701 644 q 633 799 701 747 q 415 851 564 851 q 147 697 147 851 q 192 588 147 622 q 346 531 236 554 l 542 492 q 815 244 815 439 q 721 61 815 136 q 444 -14 626 -14 z "},"T":{"ha":894,"x_min":15,"x_max":879,"o":"m 497 0 l 399 0 l 399 840 l 15 840 l 15 931 l 879 931 l 879 840 l 497 840 l 497 0 z "},"U":{"ha":992,"x_min":76,"x_max":915,"o":"m 803 90 q 748 38 803 90 q 496 -14 692 -14 q 188 90 300 -14 q 76 385 76 194 l 76 931 l 175 931 l 175 389 q 253 157 175 231 q 496 83 332 83 q 738 157 660 83 q 817 389 817 231 l 817 931 l 915 931 l 915 385 q 803 90 915 194 z "},"V":{"ha":949,"x_min":-4,"x_max":953,"o":"m 543 0 l 406 0 l -4 931 l 113 931 l 472 100 l 479 100 l 838 931 l 953 931 l 543 0 z "},"W":{"ha":1431,"x_min":22,"x_max":1407,"o":"m 439 0 l 292 0 l 22 931 l 132 931 l 317 289 l 365 99 l 374 99 l 429 289 l 646 931 l 785 931 l 1024 289 l 1086 99 l 1093 99 l 1136 289 l 1299 931 l 1407 931 l 1167 0 l 1019 0 l 793 606 l 719 822 l 710 822 l 644 606 l 439 0 z "},"X":{"ha":947,"x_min":7,"x_max":942,"o":"m 133 0 l 7 0 l 392 465 l 392 474 l 7 931 l 133 931 l 472 533 l 479 533 l 814 931 l 942 931 l 556 472 l 556 465 l 942 0 l 814 0 l 478 406 l 469 406 l 133 0 z "},"Y":{"ha":900,"x_min":-6,"x_max":906,"o":"m 499 0 l 399 0 l 399 331 l -6 931 l 115 931 l 371 551 l 447 438 l 456 438 l 531 551 l 785 931 l 906 931 l 499 331 l 499 0 z "},"Z":{"ha":918,"x_min":50,"x_max":868,"o":"m 868 0 l 50 0 l 50 90 l 707 833 l 707 840 l 72 840 l 72 931 l 851 931 l 851 840 l 188 97 l 188 90 l 868 90 l 868 0 z "},"[":{"ha":333,"x_min":83,"x_max":319,"o":"m 319 -83 l 83 -83 l 83 1014 l 319 1014 l 319 929 l 176 929 l 176 1 l 319 1 l 319 -83 z "},"\\":{"ha":550,"x_min":-28,"x_max":578,"o":"m 578 -28 l 472 -28 l -28 958 l 78 958 l 578 -28 z "},"]":{"ha":342,"x_min":-4,"x_max":232,"o":"m -4 1 l 138 1 l 138 929 l -4 929 l -4 1014 l 232 1014 l 232 -83 l -4 -83 l -4 1 z "},"^":{"ha":651,"x_min":21,"x_max":631,"o":"m 114 389 l 21 389 l 267 931 l 385 931 l 631 389 l 538 389 l 329 840 l 322 840 l 114 389 z "},"_":{"ha":528,"x_min":14,"x_max":514,"o":"m 514 -74 l 14 -74 l 14 0 l 514 0 l 514 -74 z "},"a":{"ha":769,"x_min":47,"x_max":690,"o":"m 274 -14 q 109 33 171 -14 q 47 161 47 79 q 268 336 47 313 l 594 372 l 594 425 q 547 568 594 525 q 386 611 499 611 q 161 438 161 611 l 161 432 l 63 432 l 63 438 q 151 625 63 550 q 393 700 240 700 q 616 625 542 700 q 690 429 690 550 l 690 0 l 601 0 l 601 185 l 594 185 q 479 38 564 90 q 274 -14 394 -14 m 146 168 q 296 63 146 63 q 511 123 428 63 q 594 301 594 183 l 594 307 l 299 274 q 182 243 218 267 q 146 168 146 219 z "},"b":{"ha":853,"x_min":83,"x_max":815,"o":"m 172 0 l 83 0 l 83 931 l 182 931 l 182 494 l 189 494 q 287 644 211 588 q 482 700 363 700 q 728 601 640 700 q 815 343 815 503 q 726 84 815 182 q 474 -14 638 -14 q 281 43 358 -14 q 179 203 203 100 l 172 203 l 172 0 m 182 332 q 253 144 182 211 q 450 76 325 76 q 647 138 579 76 q 715 343 715 200 q 647 547 715 485 q 453 608 579 608 q 252 540 322 608 q 182 344 182 471 l 182 332 z "},"c":{"ha":801,"x_min":49,"x_max":753,"o":"m 411 -14 q 148 86 247 -14 q 49 343 49 186 q 148 600 49 500 q 411 700 247 700 q 655 622 557 700 q 753 421 753 543 l 753 410 l 656 410 l 656 418 q 592 560 656 510 q 410 610 528 610 q 147 343 147 610 q 410 76 147 76 q 592 126 528 76 q 656 268 656 176 l 656 276 l 753 276 l 753 265 q 655 65 753 143 q 411 -14 557 -14 z "},"d":{"ha":853,"x_min":38,"x_max":771,"o":"m 379 -14 q 128 85 218 -14 q 38 343 38 183 q 126 601 38 503 q 371 700 215 700 q 565 644 489 700 q 665 494 642 588 l 672 494 l 672 931 l 771 931 l 771 0 l 681 0 l 681 203 l 675 203 q 572 43 650 100 q 379 -14 493 -14 m 138 343 q 207 139 138 201 q 404 76 276 76 q 599 144 526 76 q 672 332 672 211 l 672 344 q 601 540 672 471 q 401 608 529 608 q 138 343 138 608 z "},"e":{"ha":800,"x_min":49,"x_max":753,"o":"m 410 -14 q 147 83 244 -14 q 49 343 49 179 q 147 601 49 501 q 408 700 244 700 q 658 615 563 700 q 753 379 753 529 q 746 315 753 346 l 142 315 q 408 68 150 68 q 644 228 644 68 l 644 238 l 743 238 l 743 228 q 649 53 743 121 q 410 -14 554 -14 m 407 618 q 142 376 153 618 l 660 376 l 660 397 q 594 562 660 506 q 407 618 529 618 z "},"f":{"ha":521,"x_min":22,"x_max":507,"o":"m 231 0 l 132 0 l 132 601 l 22 601 l 22 686 l 133 686 q 219 869 142 807 q 432 931 297 931 l 507 931 l 507 853 l 418 853 q 273 815 319 853 q 231 686 226 776 l 507 686 l 507 601 l 231 601 l 231 0 z "},"g":{"ha":854,"x_min":49,"x_max":771,"o":"m 378 56 q 138 145 226 56 q 49 378 49 235 q 141 610 49 521 q 389 700 233 700 q 577 650 500 700 q 675 510 654 600 l 682 510 l 682 686 l 771 686 l 771 65 q 678 -174 771 -97 q 421 -250 585 -250 q 185 -182 278 -250 q 93 3 93 -114 l 192 3 q 249 -126 192 -86 q 425 -165 307 -165 q 616 -116 560 -165 q 672 60 672 -67 l 672 239 l 665 239 q 568 106 643 157 q 378 56 493 56 m 411 613 q 147 378 147 613 q 404 143 147 143 q 602 203 532 143 q 672 374 672 264 l 672 397 q 601 555 672 497 q 411 613 531 613 z "},"h":{"ha":842,"x_min":83,"x_max":763,"o":"m 182 0 l 83 0 l 83 931 l 182 931 l 182 476 l 189 476 q 280 636 207 572 q 475 700 353 700 q 688 617 614 700 q 763 399 763 533 l 763 0 l 664 0 l 664 386 q 608 556 664 503 q 436 610 553 610 q 182 322 182 610 l 182 0 z "},"i":{"ha":264,"x_min":83,"x_max":182,"o":"m 182 774 l 83 774 l 83 931 l 182 931 l 182 774 m 182 0 l 83 0 l 83 686 l 182 686 l 182 0 z "},"j":{"ha":267,"x_min":-82,"x_max":183,"o":"m 183 774 l 85 774 l 85 931 l 183 931 l 183 774 m -29 -236 l -82 -236 l -82 -156 l -24 -156 q 85 -53 85 -156 l 85 686 l 183 686 l 183 -32 q 126 -187 183 -139 q -29 -236 68 -236 z "},"k":{"ha":771,"x_min":83,"x_max":758,"o":"m 182 0 l 83 0 l 83 931 l 182 931 l 182 399 l 413 399 l 642 686 l 758 686 l 493 358 l 757 0 l 642 0 l 411 308 l 182 308 l 182 0 z "},"l":{"ha":264,"x_min":83,"x_max":182,"o":"m 182 0 l 83 0 l 83 931 l 182 931 l 182 0 z "},"m":{"ha":1339,"x_min":83,"x_max":1261,"o":"m 182 0 l 83 0 l 83 686 l 172 686 l 172 479 l 178 479 q 261 638 194 575 q 447 700 328 700 q 624 638 558 700 q 708 472 690 576 l 715 472 q 800 635 732 571 q 989 700 868 700 q 1190 617 1119 700 q 1261 400 1261 535 l 1261 0 l 1163 0 l 1163 386 q 1112 556 1163 501 q 953 610 1061 610 q 776 540 832 610 q 721 332 721 471 l 721 0 l 622 0 l 622 386 q 572 556 622 501 q 414 610 522 610 q 237 541 292 610 q 182 332 182 472 l 182 0 z "},"n":{"ha":838,"x_min":83,"x_max":760,"o":"m 182 0 l 83 0 l 83 686 l 172 686 l 172 471 l 179 471 q 274 633 199 567 q 471 700 350 700 q 685 615 610 700 q 760 400 760 529 l 760 0 l 661 0 l 661 386 q 436 610 661 610 q 247 538 313 610 q 182 332 182 465 l 182 0 z "},"o":{"ha":840,"x_min":47,"x_max":793,"o":"m 419 -14 q 150 86 253 -14 q 47 343 47 186 q 150 600 47 500 q 419 700 253 700 q 690 600 588 700 q 793 343 793 500 q 690 86 793 186 q 419 -14 588 -14 m 213 145 q 247 110 213 145 q 419 75 281 75 q 627 145 558 75 q 696 343 696 215 q 627 541 696 471 q 419 611 558 611 q 213 541 282 611 q 144 343 144 471 q 213 145 144 215 z "},"p":{"ha":853,"x_min":83,"x_max":815,"o":"m 182 -236 l 83 -236 l 83 686 l 172 686 l 172 493 l 183 493 q 283 644 207 589 q 479 700 360 700 q 726 601 636 700 q 815 343 815 503 q 726 85 815 183 q 476 -14 636 -14 q 285 44 364 -14 q 183 201 207 101 l 182 201 l 182 -236 m 182 331 q 255 144 182 211 q 450 76 328 76 q 647 139 578 76 q 715 343 715 201 q 453 608 715 608 q 253 539 324 608 q 182 343 182 469 l 182 331 z "},"q":{"ha":853,"x_min":38,"x_max":771,"o":"m 376 -14 q 127 85 217 -14 q 38 343 38 183 q 127 601 38 503 q 374 700 217 700 q 569 644 493 700 q 669 493 646 589 l 681 493 l 681 686 l 771 686 l 771 -236 l 672 -236 l 672 201 l 669 201 q 567 44 646 101 q 376 -14 489 -14 m 138 343 q 207 139 138 201 q 404 76 276 76 q 599 144 526 76 q 672 331 672 211 l 672 343 q 601 539 672 469 q 401 608 529 608 q 138 343 138 608 z "},"r":{"ha":679,"x_min":83,"x_max":649,"o":"m 182 0 l 83 0 l 83 686 l 172 686 l 172 499 l 179 499 q 258 644 196 588 q 421 700 319 700 q 591 630 533 700 q 649 456 649 560 l 649 388 l 550 388 l 550 440 q 510 572 550 529 q 382 614 471 614 q 182 372 182 614 l 182 0 z "},"s":{"ha":736,"x_min":49,"x_max":690,"o":"m 385 -14 q 138 49 225 -14 q 51 229 51 111 l 51 232 l 150 232 l 150 224 q 204 103 150 138 q 386 68 258 68 q 547 95 500 68 q 593 183 593 122 q 559 260 593 236 q 436 297 525 283 l 253 324 q 101 379 153 338 q 49 503 49 421 q 130 647 49 593 q 353 700 211 700 q 591 637 504 700 q 678 456 678 574 l 678 453 l 579 453 l 579 460 q 528 579 579 540 q 350 618 476 618 q 194 590 242 618 q 146 501 146 563 q 178 425 146 449 q 296 389 210 401 l 464 365 q 634 306 578 349 q 690 183 690 264 q 606 38 690 89 q 385 -14 522 -14 z "},"t":{"ha":529,"x_min":10,"x_max":504,"o":"m 504 0 l 356 0 q 132 218 132 0 l 132 601 l 10 601 l 10 686 l 132 686 l 132 850 l 232 850 l 232 686 l 504 686 l 504 601 l 232 601 l 232 213 q 267 117 232 143 q 379 90 301 90 l 504 90 l 504 0 z "},"u":{"ha":842,"x_min":79,"x_max":760,"o":"m 371 -14 q 155 71 231 -14 q 79 285 79 156 l 79 686 l 178 686 l 178 300 q 406 75 178 75 q 596 147 531 75 q 661 353 661 219 l 661 686 l 760 686 l 760 0 l 671 0 l 671 214 l 664 214 q 568 52 644 118 q 371 -14 492 -14 z "},"v":{"ha":804,"x_min":14,"x_max":790,"o":"m 463 0 l 342 0 l 14 686 l 121 686 l 399 97 l 407 97 l 683 686 l 790 686 l 463 0 z "},"w":{"ha":1188,"x_min":14,"x_max":1175,"o":"m 356 0 l 233 0 l 14 686 l 115 686 l 261 232 l 296 86 l 304 86 l 351 240 l 532 686 l 658 686 l 838 240 l 885 88 l 893 88 l 926 232 l 1074 686 l 1175 686 l 953 0 l 829 0 l 651 449 l 597 601 l 590 601 l 536 449 l 356 0 z "},"x":{"ha":804,"x_min":13,"x_max":792,"o":"m 131 0 l 13 0 l 325 342 l 325 349 l 13 686 l 132 686 l 400 401 l 407 401 l 674 686 l 792 686 l 478 351 l 478 344 l 792 0 l 672 0 l 403 290 l 397 290 l 131 0 z "},"y":{"ha":785,"x_min":7,"x_max":774,"o":"m 174 -236 l 88 -236 l 88 -146 l 192 -146 q 268 -129 243 -146 q 314 -68 293 -112 l 347 1 l 7 686 l 115 686 l 317 278 l 393 110 l 401 110 l 475 279 l 665 686 l 774 686 l 401 -96 q 313 -205 364 -174 q 174 -236 261 -236 z "},"z":{"ha":768,"x_min":36,"x_max":732,"o":"m 732 0 l 36 0 l 36 86 l 433 465 l 578 593 l 578 600 l 433 597 l 57 597 l 57 686 l 711 686 l 711 599 l 288 199 l 164 92 l 164 85 l 288 88 l 732 88 l 732 0 z "},"{":{"ha":376,"x_min":28,"x_max":358,"o":"m 358 -83 l 338 -83 q 153 96 153 -83 l 153 344 q 138 399 153 385 q 79 414 122 414 l 28 414 l 28 517 l 79 517 q 138 531 122 517 q 153 586 153 546 l 153 835 q 338 1014 153 1014 l 358 1014 l 358 919 l 332 919 q 265 900 285 919 q 246 831 246 881 l 246 585 q 142 469 246 469 l 142 461 q 246 346 246 461 l 246 100 q 265 31 246 50 q 332 11 285 11 l 358 11 l 358 -83 z "},"|":{"ha":258,"x_min":83,"x_max":176,"o":"m 176 -139 l 83 -139 l 83 1069 l 176 1069 l 176 -139 z "},"}":{"ha":378,"x_min":19,"x_max":350,"o":"m 19 1014 l 40 1014 q 225 835 225 1014 l 225 586 q 240 531 225 546 q 299 517 256 517 l 350 517 l 350 414 l 299 414 q 240 399 256 414 q 225 344 225 385 l 225 96 q 40 -83 225 -83 l 19 -83 l 19 11 l 46 11 q 113 31 93 11 q 132 100 132 50 l 132 346 q 236 461 132 461 l 236 469 q 132 585 132 469 l 132 831 q 113 900 132 881 q 46 919 93 919 l 19 919 l 19 1014 z "},"~":{"ha":767,"x_min":93,"x_max":681,"o":"m 179 347 l 93 347 l 93 450 q 219 586 93 586 q 364 519 274 586 l 426 486 q 449 471 432 482 q 474 456 467 460 q 496 444 482 451 q 521 435 510 438 q 543 432 532 432 q 596 494 596 432 l 596 582 l 681 582 l 681 478 q 563 346 681 346 q 504 356 535 346 q 459 375 474 367 q 411 406 444 383 l 340 446 q 328 455 339 447 q 316 464 318 463 q 305 472 314 465 q 292 480 296 478 q 281 486 289 482 q 269 492 274 490 q 258 497 264 494 q 245 499 251 499 q 233 500 239 500 q 179 436 179 500 l 179 347 z "}," ":{"ha":256,"x_min":0,"x_max":0,"o":""},"¡":{"ha":226,"x_min":51,"x_max":175,"o":"m 57 694 l 169 694 l 169 507 l 57 507 l 57 694 m 68 389 l 160 389 q 167 108 160 307 q 175 -139 175 -92 l 175 -236 l 51 -236 l 51 -139 q 60 108 51 -92 q 68 389 68 308 z "},"¢":{"ha":781,"x_min":49,"x_max":753,"o":"m 440 -139 l 349 -139 l 349 -10 q 130 105 211 8 q 49 343 49 201 q 130 581 49 485 q 349 696 211 678 l 349 833 l 440 833 l 440 699 q 665 613 576 690 q 753 421 753 536 l 753 410 l 656 410 l 656 418 q 592 560 656 510 q 410 610 528 610 q 147 343 147 610 q 410 76 147 76 q 592 126 528 76 q 656 268 656 176 l 656 276 l 753 276 l 753 265 q 665 73 753 150 q 440 -12 576 -4 l 440 -139 z "},"£":{"ha":875,"x_min":42,"x_max":836,"o":"m 596 413 l 290 413 l 299 399 q 358 242 358 304 q 328 153 358 192 q 253 96 297 115 l 253 90 l 836 90 l 836 0 l 42 0 l 42 90 l 90 90 q 222 127 169 90 q 274 225 274 164 q 219 361 274 275 l 186 413 l 42 413 l 42 497 l 133 497 q 79 676 79 596 q 175 868 79 792 q 453 944 271 944 q 738 856 644 944 q 832 626 832 768 l 832 594 l 735 594 l 735 622 q 669 797 735 740 q 451 854 604 854 q 178 667 178 854 q 239 497 178 593 l 596 497 l 596 413 z "},"¥":{"ha":914,"x_min":1,"x_max":913,"o":"m 507 0 l 408 0 l 408 289 l 19 289 l 19 374 l 379 374 l 289 507 l 19 507 l 19 592 l 232 592 l 1 931 l 126 931 l 340 608 l 456 422 l 464 422 l 578 608 l 790 931 l 913 931 l 683 592 l 894 592 l 894 507 l 626 507 l 536 374 l 894 374 l 894 289 l 507 289 l 507 0 z "},"¦":{"ha":232,"x_min":69,"x_max":163,"o":"m 163 521 l 69 521 l 69 1069 l 163 1069 l 163 521 m 163 -139 l 69 -139 l 69 410 l 163 410 l 163 -139 z "},"§":{"ha":694,"x_min":29,"x_max":671,"o":"m 368 -14 q 128 49 214 -14 q 42 229 42 113 l 42 233 l 140 233 l 140 224 q 189 104 140 142 q 371 67 238 67 q 526 91 478 67 q 574 171 574 115 q 540 239 574 215 q 428 274 506 263 l 231 303 q 29 464 29 332 q 69 556 29 519 q 179 603 108 592 l 179 610 q 29 758 29 638 q 110 895 29 844 q 324 946 190 946 q 570 883 482 946 q 658 703 658 819 l 658 700 l 560 700 l 560 708 q 509 828 560 792 q 321 865 458 865 q 172 840 218 865 q 126 758 126 814 q 160 691 126 713 q 272 658 193 669 l 479 629 q 671 476 671 601 q 629 377 671 417 q 518 329 588 338 l 518 322 q 628 269 586 307 q 671 171 671 232 q 588 35 671 85 q 368 -14 506 -14 m 271 371 l 356 360 q 522 369 471 340 q 574 454 574 397 q 540 525 574 501 q 428 560 506 549 l 339 571 q 126 478 126 600 q 159 406 126 429 q 271 371 192 383 z "},"©":{"ha":1057,"x_min":38,"x_max":1019,"o":"m 886 130 q 819 66 886 130 q 529 1 753 1 q 172 130 306 1 q 38 465 38 258 q 172 801 38 672 q 529 929 306 929 q 886 801 753 929 q 1019 465 1019 672 q 886 130 1019 258 m 529 78 q 835 178 733 78 q 936 465 936 278 q 835 753 936 653 q 529 853 733 853 q 222 753 324 853 q 121 465 121 653 q 222 178 121 278 q 529 78 324 78 m 533 214 q 336 283 411 214 q 261 465 261 353 q 336 647 261 578 q 533 717 411 717 q 715 661 643 717 q 786 524 786 606 l 786 513 l 707 513 l 707 521 q 533 644 707 644 q 340 465 340 644 q 533 286 340 286 q 707 410 707 286 l 707 418 l 786 418 l 786 407 q 715 269 786 325 q 533 214 643 214 z "},"ª":{"ha":296,"x_min":49,"x_max":247,"o":"m 122 728 q 49 783 49 728 q 115 838 49 831 l 199 847 l 199 857 q 188 890 199 879 q 149 900 178 900 q 111 891 121 900 q 101 863 101 882 l 101 860 l 50 860 l 50 864 q 78 922 50 899 q 153 944 106 944 q 224 920 200 944 q 247 854 247 896 l 247 732 l 203 732 l 203 769 l 200 769 q 122 728 182 728 m 97 786 q 135 765 97 765 q 201 815 201 765 l 126 806 q 97 786 97 803 z "},"«":{"ha":674,"x_min":21,"x_max":632,"o":"m 354 474 l 632 674 l 632 571 l 426 428 l 426 419 l 632 276 l 632 175 l 354 374 l 354 474 m 21 474 l 299 674 l 299 571 l 93 428 l 93 419 l 299 276 l 299 175 l 21 374 l 21 474 z "},"­":{"ha":833,"x_min":42,"x_max":419,"o":"m 419 363 l 42 363 l 42 450 l 419 450 l 419 363 z "},"®":{"ha":542,"x_min":28,"x_max":514,"o":"m 447 544 q 414 513 447 544 q 271 481 381 481 q 94 544 161 481 q 28 704 28 608 q 94 864 28 800 q 271 928 161 928 q 447 864 381 928 q 514 704 514 800 q 447 544 514 608 m 271 533 q 458 704 458 533 q 271 875 458 875 q 85 704 85 875 q 271 533 85 533 m 215 610 l 169 610 l 169 804 l 299 804 q 381 743 381 804 q 325 689 381 692 l 325 686 q 361 651 344 679 l 388 610 l 335 610 l 313 647 q 294 672 303 665 q 268 678 286 678 l 215 678 l 215 610 m 215 764 l 215 713 l 303 713 q 335 738 335 713 q 328 759 335 754 q 303 764 321 764 l 215 764 z "},"°":{"ha":325,"x_min":36,"x_max":288,"o":"m 163 699 q 71 734 106 699 q 36 822 36 769 q 71 910 36 875 q 163 944 106 944 q 253 910 218 944 q 288 822 288 875 q 253 734 288 769 q 163 699 218 699 m 94 822 q 94 788 94 822 q 163 754 94 754 q 231 822 231 754 q 163 890 231 890 q 94 822 94 890 z "},"±":{"ha":646,"x_min":51,"x_max":593,"o":"m 593 119 l 51 119 l 51 204 l 279 204 l 279 424 l 51 424 l 51 507 l 279 507 l 279 736 l 367 736 l 367 507 l 593 507 l 593 424 l 367 424 l 367 204 l 593 204 l 593 119 z "},"²":{"ha":497,"x_min":39,"x_max":469,"o":"m 468 472 l 47 472 l 47 499 q 82 611 47 571 q 189 675 117 651 l 293 711 q 370 747 347 729 q 393 797 393 765 q 365 856 393 836 q 264 875 338 875 q 151 851 186 875 q 115 774 115 826 l 115 763 l 39 763 l 39 775 q 97 895 39 846 q 267 944 156 944 q 416 903 363 944 q 469 800 469 863 q 433 715 469 746 q 317 658 396 683 l 213 626 q 146 589 167 610 q 125 533 125 568 l 268 540 l 468 540 l 468 472 z "},"³":{"ha":511,"x_min":38,"x_max":483,"o":"m 271 465 q 97 507 156 465 q 38 618 38 549 l 38 633 l 114 633 l 114 619 q 147 553 114 574 q 268 533 181 533 q 372 550 339 533 q 406 613 406 567 q 376 669 406 656 q 274 683 347 683 l 164 683 l 164 740 l 260 740 q 360 753 333 740 q 386 808 386 765 q 360 860 386 843 q 261 878 333 878 q 147 858 179 878 q 114 793 114 838 l 114 781 l 38 781 l 38 793 q 97 902 38 860 q 265 944 157 944 q 410 913 356 944 q 464 822 464 882 q 368 719 464 733 l 368 713 q 483 601 483 701 q 423 500 483 535 q 271 465 363 465 z "},"¶":{"ha":892,"x_min":28,"x_max":808,"o":"m 521 0 l 422 0 l 422 375 l 339 375 q 115 447 203 375 q 28 656 28 519 q 115 860 28 790 q 339 931 203 931 l 521 931 l 521 0 m 808 0 l 710 0 l 710 931 l 808 931 l 808 0 z "},"·":{"ha":226,"x_min":51,"x_max":174,"o":"m 174 347 l 51 347 l 51 540 l 174 540 l 174 347 z "},"¹":{"ha":325,"x_min":8,"x_max":225,"o":"m 225 465 l 147 465 l 147 808 l 8 808 l 8 874 l 65 874 q 128 885 108 874 q 156 931 147 897 l 225 931 l 225 465 z "},"º":{"ha":318,"x_min":49,"x_max":269,"o":"m 158 728 q 79 758 110 728 q 49 836 49 789 q 79 914 49 883 q 158 944 110 944 q 239 914 208 944 q 269 836 269 883 q 239 758 269 789 q 158 728 208 728 m 97 836 q 97 806 97 836 q 158 775 97 775 q 219 836 219 775 q 158 897 219 897 q 97 836 97 897 z "},"»":{"ha":674,"x_min":42,"x_max":653,"o":"m 319 374 l 42 175 l 42 276 l 247 419 l 247 428 l 42 571 l 42 674 l 319 474 l 319 374 m 653 374 l 375 175 l 375 276 l 581 419 l 581 428 l 375 571 l 375 674 l 653 474 l 653 374 z "},"¼":{"ha":974,"x_min":21,"x_max":943,"o":"m 249 465 l 171 465 l 171 808 l 32 808 l 32 874 l 89 874 q 151 885 132 874 q 179 931 171 897 l 249 931 l 249 465 m 121 0 l 21 0 l 811 931 l 911 931 l 121 0 m 851 0 l 774 0 l 774 94 l 460 94 l 460 153 l 764 465 l 851 465 l 851 165 l 943 165 l 943 94 l 851 94 l 851 0 m 558 165 l 774 165 l 774 378 l 768 378 l 558 172 l 558 165 z "},"½":{"ha":1050,"x_min":21,"x_max":1026,"o":"m 249 465 l 171 465 l 171 808 l 32 808 l 32 874 l 89 874 q 151 885 132 874 q 179 931 171 897 l 249 931 l 249 465 m 121 0 l 21 0 l 811 931 l 911 931 l 121 0 m 1025 0 l 604 0 l 604 26 q 639 139 604 99 q 746 203 674 179 l 850 239 q 927 275 904 257 q 950 325 950 293 q 922 383 950 364 q 819 403 893 403 q 708 378 743 403 q 672 301 672 354 l 672 290 l 596 290 l 596 303 q 654 423 596 374 q 824 472 713 472 q 973 431 919 472 q 1026 328 1026 390 q 989 242 1026 274 q 872 186 951 211 l 769 154 q 703 117 724 138 q 682 61 682 96 l 825 68 l 1025 68 l 1025 0 z "},"¾":{"ha":1069,"x_min":32,"x_max":1019,"o":"m 265 465 q 91 507 150 465 q 32 618 32 549 l 32 633 l 107 633 l 107 619 q 140 553 107 574 q 261 533 174 533 q 365 550 332 533 q 399 613 399 567 q 369 669 399 656 q 267 683 340 683 l 157 683 l 157 740 l 254 740 q 353 753 326 740 q 381 808 381 765 q 353 860 381 843 q 254 878 326 878 q 140 858 172 878 q 107 793 107 838 l 107 781 l 32 781 l 32 793 q 91 902 32 860 q 258 944 150 944 q 403 913 349 944 q 458 822 458 882 q 361 719 458 733 l 361 713 q 478 601 478 701 q 417 500 478 535 q 265 465 357 465 m 228 0 l 129 0 l 919 931 l 1018 931 l 228 0 m 929 -1 l 851 -1 l 851 93 l 536 93 l 536 151 l 840 464 l 929 464 l 929 164 l 1019 164 l 1019 93 l 929 93 l 929 -1 m 636 164 l 851 164 l 851 376 l 844 376 l 636 171 l 636 164 z "},"¿":{"ha":769,"x_min":18,"x_max":756,"o":"m 368 694 l 479 694 l 479 507 l 368 507 l 368 694 m 376 394 l 475 394 l 475 350 q 358 199 475 249 l 258 153 q 150 85 183 119 q 117 -7 117 50 q 173 -119 117 -79 q 367 -160 229 -160 q 591 -108 524 -160 q 658 53 658 -56 l 658 81 l 756 81 l 756 54 q 657 -165 756 -79 q 361 -250 558 -250 q 103 -183 189 -250 q 18 -10 18 -115 q 210 224 18 140 l 308 267 q 363 303 349 285 q 376 356 376 321 l 376 394 z "},"À":{"ha":994,"x_min":7,"x_max":988,"o":"m 547 1014 l 443 1014 l 238 1186 l 374 1186 l 547 1014 m 115 0 l 7 0 l 428 931 l 565 931 l 988 0 l 876 0 l 751 274 l 240 274 l 115 0 m 440 715 l 281 363 l 711 363 l 550 715 l 499 836 l 490 836 l 440 715 z "},"Á":{"ha":994,"x_min":7,"x_max":988,"o":"m 550 1014 l 447 1014 l 619 1186 l 756 1186 l 550 1014 m 115 0 l 7 0 l 428 931 l 565 931 l 988 0 l 876 0 l 751 274 l 240 274 l 115 0 m 440 715 l 281 363 l 711 363 l 550 715 l 499 836 l 490 836 l 440 715 z "},"Â":{"ha":994,"x_min":7,"x_max":988,"o":"m 367 1014 l 261 1014 l 443 1194 l 551 1194 l 732 1014 l 626 1014 l 501 1139 l 493 1139 l 367 1014 m 115 0 l 7 0 l 428 931 l 565 931 l 988 0 l 876 0 l 751 274 l 240 274 l 115 0 m 440 715 l 281 363 l 711 363 l 550 715 l 499 836 l 490 836 l 440 715 z "},"Ã":{"ha":994,"x_min":7,"x_max":988,"o":"m 365 1039 l 296 1039 l 296 1088 q 392 1197 296 1197 q 493 1157 435 1197 l 522 1136 q 589 1107 561 1107 q 631 1160 631 1107 l 631 1194 l 699 1194 l 699 1146 q 675 1065 699 1096 q 607 1035 651 1035 q 504 1076 558 1035 l 469 1097 q 406 1126 433 1126 q 365 1076 365 1126 l 365 1039 m 115 0 l 7 0 l 428 931 l 565 931 l 988 0 l 876 0 l 751 274 l 240 274 l 115 0 m 440 715 l 281 363 l 711 363 l 550 715 l 499 836 l 490 836 l 440 715 z "},"Ä":{"ha":994,"x_min":7,"x_max":988,"o":"m 658 1014 l 564 1014 l 564 1178 l 658 1178 l 658 1014 m 431 1014 l 335 1014 l 335 1178 l 431 1178 l 431 1014 m 115 0 l 7 0 l 428 931 l 565 931 l 988 0 l 876 0 l 751 274 l 240 274 l 115 0 m 440 715 l 281 363 l 711 363 l 550 715 l 499 836 l 490 836 l 440 715 z "},"Å":{"ha":994,"x_min":7,"x_max":988,"o":"m 115 0 l 7 0 l 414 900 q 338 1025 338 936 q 381 1128 338 1089 q 497 1167 425 1167 q 612 1128 568 1167 q 656 1025 656 1089 q 579 900 656 936 l 988 0 l 876 0 l 751 274 l 240 274 l 115 0 m 403 1025 q 403 985 403 1025 q 496 946 403 946 q 589 1025 589 946 q 496 1104 589 1104 q 403 1025 403 1104 m 440 715 l 281 363 l 711 363 l 550 715 l 499 836 l 490 836 l 440 715 z "},"Æ":{"ha":1521,"x_min":-3,"x_max":1467,"o":"m 118 0 l -3 0 l 715 931 l 1467 931 l 1467 840 l 858 840 l 858 513 l 1446 513 l 1446 424 l 858 424 l 858 90 l 1467 90 l 1467 0 l 760 0 l 760 274 l 331 274 l 118 0 m 753 819 l 399 363 l 760 363 l 760 819 l 753 819 z "},"Ç":{"ha":983,"x_min":49,"x_max":935,"o":"m 558 -283 l 449 -283 l 449 -221 l 560 -221 q 608 -182 608 -221 q 560 -142 608 -142 l 463 -142 l 463 -11 q 163 133 276 4 q 49 465 49 263 q 178 813 49 682 q 513 944 307 944 q 815 849 696 944 q 935 599 935 754 l 935 582 l 828 582 l 828 599 q 747 783 828 718 q 514 849 667 849 q 246 751 339 849 q 153 465 153 654 q 246 179 153 276 q 514 82 339 82 q 747 147 667 82 q 828 332 828 213 l 828 349 l 935 349 l 935 332 q 819 84 935 179 q 525 -14 704 -11 l 525 -79 l 558 -79 q 645 -107 614 -79 q 676 -181 676 -135 q 645 -256 676 -229 q 558 -283 614 -283 z "},"È":{"ha":844,"x_min":83,"x_max":790,"o":"m 486 1014 l 382 1014 l 176 1186 l 313 1186 l 486 1014 m 790 0 l 83 0 l 83 931 l 790 931 l 790 840 l 182 840 l 182 513 l 769 513 l 769 424 l 182 424 l 182 90 l 790 90 l 790 0 z "},"É":{"ha":844,"x_min":83,"x_max":790,"o":"m 489 1014 l 386 1014 l 558 1186 l 694 1186 l 489 1014 m 790 0 l 83 0 l 83 931 l 790 931 l 790 840 l 182 840 l 182 513 l 769 513 l 769 424 l 182 424 l 182 90 l 790 90 l 790 0 z "},"Ê":{"ha":844,"x_min":83,"x_max":790,"o":"m 306 1014 l 200 1014 l 381 1194 l 490 1194 l 671 1014 l 565 1014 l 440 1139 l 432 1139 l 306 1014 m 790 0 l 83 0 l 83 931 l 790 931 l 790 840 l 182 840 l 182 513 l 769 513 l 769 424 l 182 424 l 182 90 l 790 90 l 790 0 z "},"Ë":{"ha":844,"x_min":83,"x_max":790,"o":"m 597 1014 l 503 1014 l 503 1178 l 597 1178 l 597 1014 m 368 1014 l 274 1014 l 274 1178 l 368 1178 l 368 1014 m 790 0 l 83 0 l 83 931 l 790 931 l 790 840 l 182 840 l 182 513 l 769 513 l 769 424 l 182 424 l 182 90 l 790 90 l 790 0 z "},"Ì":{"ha":264,"x_min":-126,"x_max":182,"o":"m 182 1014 l 79 1014 l -126 1186 l 8 1186 l 182 1014 m 182 0 l 83 0 l 83 931 l 182 931 l 182 0 z "},"Í":{"ha":264,"x_min":82,"x_max":392,"o":"m 186 1014 l 82 1014 l 256 1186 l 392 1186 l 186 1014 m 182 0 l 83 0 l 83 931 l 182 931 l 182 0 z "},"Î":{"ha":264,"x_min":-103,"x_max":367,"o":"m 3 1014 l -103 1014 l 78 1194 l 186 1194 l 367 1014 l 261 1014 l 136 1139 l 128 1139 l 3 1014 m 182 0 l 83 0 l 83 931 l 182 931 l 182 0 z "},"Ï":{"ha":264,"x_min":-31,"x_max":294,"o":"m 294 1014 l 199 1014 l 199 1178 l 294 1178 l 294 1014 m 65 1014 l -31 1014 l -31 1178 l 65 1178 l 65 1014 m 182 0 l 83 0 l 83 931 l 182 931 l 182 0 z "},"Ð":{"ha":1063,"x_min":14,"x_max":1014,"o":"m 557 0 l 154 0 l 154 421 l 14 421 l 14 510 l 154 510 l 154 931 l 557 931 q 890 805 767 931 q 1014 465 1014 679 q 890 126 1014 251 q 557 0 767 0 m 579 421 l 253 421 l 253 90 l 557 90 q 822 183 735 90 q 910 465 910 276 q 822 747 910 654 q 557 840 735 840 l 253 840 l 253 510 l 579 510 l 579 421 z "},"Ñ":{"ha":978,"x_min":83,"x_max":896,"o":"m 357 1039 l 289 1039 l 289 1088 q 385 1197 289 1197 q 486 1157 428 1197 l 515 1136 q 581 1107 554 1107 q 624 1160 624 1107 l 624 1194 l 692 1194 l 692 1146 q 668 1065 692 1094 q 599 1035 644 1035 q 496 1076 553 1035 l 463 1097 q 397 1126 426 1126 q 357 1076 357 1126 l 357 1039 m 182 0 l 83 0 l 83 931 l 192 931 l 679 299 l 792 143 l 800 143 l 797 296 l 797 931 l 896 931 l 896 0 l 788 0 l 303 625 l 186 782 l 179 782 l 182 626 l 182 0 z "},"Ò":{"ha":1039,"x_min":49,"x_max":990,"o":"m 569 1014 l 465 1014 l 260 1186 l 396 1186 l 569 1014 m 518 -14 q 179 117 310 -14 q 49 465 49 249 q 179 813 49 682 q 518 944 310 944 q 860 813 729 944 q 990 465 990 682 q 860 117 990 249 q 518 -14 729 -14 m 247 179 q 293 131 247 179 q 518 82 340 82 q 791 179 696 82 q 886 465 886 276 q 791 751 886 654 q 518 849 696 849 q 247 751 340 849 q 153 465 153 654 q 247 179 153 276 z "},"Ó":{"ha":1039,"x_min":49,"x_max":990,"o":"m 572 1014 l 469 1014 l 642 1186 l 778 1186 l 572 1014 m 518 -14 q 179 117 310 -14 q 49 465 49 249 q 179 813 49 682 q 518 944 310 944 q 860 813 729 944 q 990 465 990 682 q 860 117 990 249 q 518 -14 729 -14 m 247 179 q 293 131 247 179 q 518 82 340 82 q 791 179 696 82 q 886 465 886 276 q 791 751 886 654 q 518 849 696 849 q 247 751 340 849 q 153 465 153 654 q 247 179 153 276 z "},"Ô":{"ha":1039,"x_min":49,"x_max":990,"o":"m 389 1014 l 283 1014 l 465 1194 l 574 1194 l 754 1014 l 649 1014 l 524 1139 l 515 1139 l 389 1014 m 518 -14 q 179 117 310 -14 q 49 465 49 249 q 179 813 49 682 q 518 944 310 944 q 860 813 729 944 q 990 465 990 682 q 860 117 990 249 q 518 -14 729 -14 m 247 179 q 293 131 247 179 q 518 82 340 82 q 791 179 696 82 q 886 465 886 276 q 791 751 886 654 q 518 849 696 849 q 247 751 340 849 q 153 465 153 654 q 247 179 153 276 z "},"Õ":{"ha":1039,"x_min":49,"x_max":990,"o":"m 388 1039 l 318 1039 l 318 1088 q 414 1197 318 1197 q 515 1157 457 1197 l 544 1136 q 611 1107 583 1107 q 653 1160 653 1107 l 653 1194 l 721 1194 l 721 1146 q 697 1065 721 1096 q 629 1035 674 1035 q 526 1076 581 1035 l 492 1097 q 428 1126 456 1126 q 388 1076 388 1126 l 388 1039 m 518 -14 q 179 117 310 -14 q 49 465 49 249 q 179 813 49 682 q 518 944 310 944 q 860 813 729 944 q 990 465 990 682 q 860 117 990 249 q 518 -14 729 -14 m 247 179 q 293 131 247 179 q 518 82 340 82 q 791 179 696 82 q 886 465 886 276 q 791 751 886 654 q 518 849 696 849 q 247 751 340 849 q 153 465 153 654 q 247 179 153 276 z "},"Ö":{"ha":1039,"x_min":49,"x_max":990,"o":"m 681 1014 l 586 1014 l 586 1178 l 681 1178 l 681 1014 m 453 1014 l 357 1014 l 357 1178 l 453 1178 l 453 1014 m 518 -14 q 179 117 310 -14 q 49 465 49 249 q 179 813 49 682 q 518 944 310 944 q 860 813 729 944 q 990 465 990 682 q 860 117 990 249 q 518 -14 729 -14 m 247 179 q 293 131 247 179 q 518 82 340 82 q 791 179 696 82 q 886 465 886 276 q 791 751 886 654 q 518 849 696 849 q 247 751 340 849 q 153 465 153 654 q 247 179 153 276 z "},"×":{"ha":631,"x_min":83,"x_max":547,"o":"m 547 296 l 485 233 l 314 404 l 144 235 l 85 294 l 254 464 l 83 635 l 144 697 l 317 526 l 486 696 l 546 636 l 376 467 l 547 296 z "},"Ø":{"ha":1039,"x_min":49,"x_max":990,"o":"m 518 -14 q 214 86 338 -14 l 108 -26 l 54 26 l 160 139 q 49 465 49 268 q 179 813 49 682 q 518 944 310 944 q 819 849 696 944 l 919 956 l 974 903 l 875 797 q 990 465 990 667 q 860 117 990 249 q 518 -14 729 -14 m 153 465 q 224 208 153 303 l 757 781 q 518 849 668 849 q 247 751 340 849 q 153 465 153 654 m 518 82 q 791 179 696 82 q 886 465 886 276 q 811 728 886 632 l 275 153 q 518 82 367 82 z "},"Ù":{"ha":992,"x_min":76,"x_max":915,"o":"m 546 1014 l 442 1014 l 236 1186 l 372 1186 l 546 1014 m 803 90 q 748 38 803 90 q 496 -14 692 -14 q 188 90 300 -14 q 76 385 76 194 l 76 931 l 175 931 l 175 389 q 253 157 175 231 q 496 83 332 83 q 738 157 660 83 q 817 389 817 231 l 817 931 l 915 931 l 915 385 q 803 90 915 194 z "},"Ú":{"ha":992,"x_min":76,"x_max":915,"o":"m 549 1014 l 446 1014 l 619 1186 l 754 1186 l 549 1014 m 803 90 q 748 38 803 90 q 496 -14 692 -14 q 188 90 300 -14 q 76 385 76 194 l 76 931 l 175 931 l 175 389 q 253 157 175 231 q 496 83 332 83 q 738 157 660 83 q 817 389 817 231 l 817 931 l 915 931 l 915 385 q 803 90 915 194 z "},"Û":{"ha":992,"x_min":76,"x_max":915,"o":"m 367 1014 l 261 1014 l 442 1194 l 550 1194 l 731 1014 l 625 1014 l 500 1139 l 492 1139 l 367 1014 m 803 90 q 748 38 803 90 q 496 -14 692 -14 q 188 90 300 -14 q 76 385 76 194 l 76 931 l 175 931 l 175 389 q 253 157 175 231 q 496 83 332 83 q 738 157 660 83 q 817 389 817 231 l 817 931 l 915 931 l 915 385 q 803 90 915 194 z "},"Ü":{"ha":992,"x_min":76,"x_max":915,"o":"m 658 1014 l 563 1014 l 563 1178 l 658 1178 l 658 1014 m 429 1014 l 333 1014 l 333 1178 l 429 1178 l 429 1014 m 803 90 q 748 38 803 90 q 496 -14 692 -14 q 188 90 300 -14 q 76 385 76 194 l 76 931 l 175 931 l 175 389 q 253 157 175 231 q 496 83 332 83 q 738 157 660 83 q 817 389 817 231 l 817 931 l 915 931 l 915 385 q 803 90 915 194 z "},"Ý":{"ha":900,"x_min":-6,"x_max":906,"o":"m 503 1014 l 400 1014 l 574 1186 l 708 1186 l 503 1014 m 499 0 l 399 0 l 399 331 l -6 931 l 115 931 l 371 551 l 447 438 l 456 438 l 531 551 l 785 931 l 906 931 l 499 331 l 499 0 z "},"Þ":{"ha":882,"x_min":83,"x_max":857,"o":"m 182 0 l 83 0 l 83 931 l 182 931 l 182 781 l 514 781 q 763 697 668 781 q 857 465 857 613 q 763 234 857 318 q 514 150 668 150 l 182 150 l 182 0 m 507 692 l 182 692 l 182 240 l 507 240 q 695 294 632 240 q 758 465 758 349 q 507 692 758 692 z "},"ß":{"ha":857,"x_min":69,"x_max":833,"o":"m 167 0 l 69 0 l 69 608 q 169 853 69 771 q 461 935 269 935 q 715 871 626 935 q 804 703 804 807 q 747 565 804 621 q 575 494 689 508 l 575 486 q 767 410 700 474 q 833 251 833 347 q 750 66 833 132 q 510 0 667 0 l 317 0 l 317 90 l 501 90 q 680 132 626 90 q 733 267 733 174 q 492 442 733 442 l 317 442 l 317 526 l 469 526 q 706 686 706 526 q 651 801 706 763 q 457 840 596 840 q 231 788 294 840 q 167 610 167 736 l 167 0 z "},"à":{"ha":769,"x_min":47,"x_max":690,"o":"m 446 778 l 344 778 l 138 958 l 272 958 l 446 778 m 274 -14 q 109 33 171 -14 q 47 161 47 79 q 268 336 47 313 l 594 372 l 594 425 q 547 568 594 525 q 386 611 499 611 q 161 438 161 611 l 161 432 l 63 432 l 63 438 q 151 625 63 550 q 393 700 240 700 q 616 625 542 700 q 690 429 690 550 l 690 0 l 601 0 l 601 185 l 594 185 q 479 38 564 90 q 274 -14 394 -14 m 146 168 q 296 63 146 63 q 511 123 428 63 q 594 301 594 183 l 594 307 l 299 274 q 182 243 218 267 q 146 168 146 219 z "},"á":{"ha":769,"x_min":47,"x_max":690,"o":"m 442 778 l 340 778 l 514 958 l 649 958 l 442 778 m 274 -14 q 109 33 171 -14 q 47 161 47 79 q 268 336 47 313 l 594 372 l 594 425 q 547 568 594 525 q 386 611 499 611 q 161 438 161 611 l 161 432 l 63 432 l 63 438 q 151 625 63 550 q 393 700 240 700 q 616 625 542 700 q 690 429 690 550 l 690 0 l 601 0 l 601 185 l 594 185 q 479 38 564 90 q 274 -14 394 -14 m 146 168 q 296 63 146 63 q 511 123 428 63 q 594 301 594 183 l 594 307 l 299 274 q 182 243 218 267 q 146 168 146 219 z "},"â":{"ha":769,"x_min":47,"x_max":690,"o":"m 261 778 l 156 778 l 336 958 l 446 958 l 626 778 l 521 778 l 396 903 l 388 903 l 261 778 m 274 -14 q 109 33 171 -14 q 47 161 47 79 q 268 336 47 313 l 594 372 l 594 425 q 547 568 594 525 q 386 611 499 611 q 161 438 161 611 l 161 432 l 63 432 l 63 438 q 151 625 63 550 q 393 700 240 700 q 616 625 542 700 q 690 429 690 550 l 690 0 l 601 0 l 601 185 l 594 185 q 479 38 564 90 q 274 -14 394 -14 m 146 168 q 296 63 146 63 q 511 123 428 63 q 594 301 594 183 l 594 307 l 299 274 q 182 243 218 267 q 146 168 146 219 z "},"ã":{"ha":769,"x_min":47,"x_max":690,"o":"m 258 803 l 189 803 l 189 853 q 286 961 189 961 q 386 921 328 961 l 417 900 q 482 871 453 871 q 524 924 524 871 l 524 958 l 592 958 l 592 910 q 568 829 592 860 q 500 799 544 799 q 397 840 454 799 l 363 861 q 300 890 326 890 q 258 842 258 890 l 258 803 m 274 -14 q 109 33 171 -14 q 47 161 47 79 q 268 336 47 313 l 594 372 l 594 425 q 547 568 594 525 q 386 611 499 611 q 161 438 161 611 l 161 432 l 63 432 l 63 438 q 151 625 63 550 q 393 700 240 700 q 616 625 542 700 q 690 429 690 550 l 690 0 l 601 0 l 601 185 l 594 185 q 479 38 564 90 q 274 -14 394 -14 m 146 168 q 296 63 146 63 q 511 123 428 63 q 594 301 594 183 l 594 307 l 299 274 q 182 243 218 267 q 146 168 146 219 z "},"ä":{"ha":769,"x_min":47,"x_max":690,"o":"m 553 778 l 458 778 l 458 942 l 553 942 l 553 778 m 324 778 l 229 778 l 229 942 l 324 942 l 324 778 m 274 -14 q 109 33 171 -14 q 47 161 47 79 q 268 336 47 313 l 594 372 l 594 425 q 547 568 594 525 q 386 611 499 611 q 161 438 161 611 l 161 432 l 63 432 l 63 438 q 151 625 63 550 q 393 700 240 700 q 616 625 542 700 q 690 429 690 550 l 690 0 l 601 0 l 601 185 l 594 185 q 479 38 564 90 q 274 -14 394 -14 m 146 168 q 296 63 146 63 q 511 123 428 63 q 594 301 594 183 l 594 307 l 299 274 q 182 243 218 267 q 146 168 146 219 z "},"å":{"ha":769,"x_min":47,"x_max":690,"o":"m 392 756 q 291 789 329 756 q 253 878 253 822 q 291 967 253 933 q 392 1000 329 1000 q 491 967 453 1000 q 529 878 529 933 q 491 789 529 822 q 392 756 453 756 m 307 878 q 307 841 307 878 q 392 804 307 804 q 476 878 476 804 q 392 951 476 951 q 307 878 307 951 m 274 -14 q 109 33 171 -14 q 47 161 47 79 q 268 336 47 313 l 594 372 l 594 425 q 547 568 594 525 q 386 611 499 611 q 161 438 161 611 l 161 432 l 63 432 l 63 438 q 151 625 63 550 q 393 700 240 700 q 616 625 542 700 q 690 429 690 550 l 690 0 l 601 0 l 601 185 l 594 185 q 479 38 564 90 q 274 -14 394 -14 m 146 168 q 296 63 146 63 q 511 123 428 63 q 594 301 594 183 l 594 307 l 299 274 q 182 243 218 267 q 146 168 146 219 z "},"æ":{"ha":1342,"x_min":42,"x_max":1308,"o":"m 281 -14 q 107 33 172 -14 q 42 163 42 81 q 263 338 42 313 l 604 374 l 604 425 q 555 568 604 525 q 388 611 506 611 q 156 438 156 611 l 156 429 l 57 429 l 57 438 q 146 625 57 550 q 390 700 235 700 q 668 560 597 700 q 965 700 767 700 q 1213 615 1118 700 q 1308 379 1308 529 q 1301 315 1308 346 l 697 315 q 964 68 706 68 q 1201 228 1201 68 l 1201 238 l 1300 238 l 1300 228 q 1206 53 1300 121 q 967 -14 1111 -14 q 751 43 840 -14 q 626 203 663 100 l 622 203 q 496 42 589 97 q 281 -14 403 -14 m 964 618 q 697 376 708 618 l 1215 376 l 1215 397 q 1150 562 1215 506 q 964 618 1085 618 m 140 169 q 301 63 140 63 q 515 121 432 63 q 606 300 597 179 l 606 308 l 293 274 q 178 242 215 265 q 140 169 140 219 z "},"ç":{"ha":801,"x_min":49,"x_max":753,"o":"m 493 -283 l 383 -283 l 383 -221 l 493 -221 q 542 -182 542 -221 q 493 -142 542 -142 l 396 -142 l 396 -14 q 144 91 239 -8 q 49 343 49 190 q 148 600 49 500 q 411 700 247 700 q 655 622 557 700 q 753 421 753 543 l 753 410 l 656 410 l 656 418 q 592 560 656 510 q 410 610 528 610 q 147 343 147 610 q 410 76 147 76 q 592 126 528 76 q 656 268 656 176 l 656 276 l 753 276 l 753 265 q 669 78 753 154 q 458 -11 586 1 l 458 -79 l 493 -79 q 578 -107 547 -79 q 610 -181 610 -135 q 579 -256 610 -229 q 493 -283 549 -283 z "},"è":{"ha":800,"x_min":49,"x_max":753,"o":"m 454 778 l 354 778 l 147 958 l 281 958 l 454 778 m 410 -14 q 147 83 244 -14 q 49 343 49 179 q 147 601 49 501 q 408 700 244 700 q 658 615 563 700 q 753 379 753 529 q 746 315 753 346 l 142 315 q 408 68 150 68 q 644 228 644 68 l 644 238 l 743 238 l 743 228 q 649 53 743 121 q 410 -14 554 -14 m 407 618 q 142 376 153 618 l 660 376 l 660 397 q 594 562 660 506 q 407 618 529 618 z "},"é":{"ha":800,"x_min":49,"x_max":753,"o":"m 450 778 l 349 778 l 522 958 l 657 958 l 450 778 m 410 -14 q 147 83 244 -14 q 49 343 49 179 q 147 601 49 501 q 408 700 244 700 q 658 615 563 700 q 753 379 753 529 q 746 315 753 346 l 142 315 q 408 68 150 68 q 644 228 644 68 l 644 238 l 743 238 l 743 228 q 649 53 743 121 q 410 -14 554 -14 m 407 618 q 142 376 153 618 l 660 376 l 660 397 q 594 562 660 506 q 407 618 529 618 z "},"ê":{"ha":800,"x_min":49,"x_max":753,"o":"m 271 778 l 165 778 l 346 958 l 454 958 l 636 778 l 529 778 l 404 903 l 396 903 l 271 778 m 410 -14 q 147 83 244 -14 q 49 343 49 179 q 147 601 49 501 q 408 700 244 700 q 658 615 563 700 q 753 379 753 529 q 746 315 753 346 l 142 315 q 408 68 150 68 q 644 228 644 68 l 644 238 l 743 238 l 743 228 q 649 53 743 121 q 410 -14 554 -14 m 407 618 q 142 376 153 618 l 660 376 l 660 397 q 594 562 660 506 q 407 618 529 618 z "},"ë":{"ha":800,"x_min":49,"x_max":753,"o":"m 563 778 l 467 778 l 467 942 l 563 942 l 563 778 m 333 778 l 239 778 l 239 942 l 333 942 l 333 778 m 410 -14 q 147 83 244 -14 q 49 343 49 179 q 147 601 49 501 q 408 700 244 700 q 658 615 563 700 q 753 379 753 529 q 746 315 753 346 l 142 315 q 408 68 150 68 q 644 228 644 68 l 644 238 l 743 238 l 743 228 q 649 53 743 121 q 410 -14 554 -14 m 407 618 q 142 376 153 618 l 660 376 l 660 397 q 594 562 660 506 q 407 618 529 618 z "},"ì":{"ha":256,"x_min":-126,"x_max":182,"o":"m 182 778 l 81 778 l -126 958 l 8 958 l 182 778 m 176 0 l 78 0 l 78 694 l 176 694 l 176 0 z "},"í":{"ha":256,"x_min":76,"x_max":385,"o":"m 178 778 l 76 778 l 250 958 l 385 958 l 178 778 m 176 0 l 78 0 l 78 694 l 176 694 l 176 0 z "},"î":{"ha":256,"x_min":-107,"x_max":363,"o":"m -1 778 l -107 778 l 74 958 l 182 958 l 363 778 l 257 778 l 132 903 l 124 903 l -1 778 m 176 0 l 78 0 l 78 694 l 176 694 l 176 0 z "},"ï":{"ha":256,"x_min":-35,"x_max":290,"o":"m 290 778 l 194 778 l 194 942 l 290 942 l 290 778 m 61 778 l -35 778 l -35 942 l 61 942 l 61 778 m 176 0 l 78 0 l 78 694 l 176 694 l 176 0 z "},"ð":{"ha":843,"x_min":-3,"x_max":808,"o":"m 382 -14 q 99 67 200 -14 q -3 288 -3 149 q 94 498 -3 421 q 358 575 190 575 q 576 523 493 575 q 689 383 660 471 l 699 383 q 508 747 694 571 l 226 678 l 214 735 l 456 793 q 258 931 368 865 l 390 931 q 558 818 482 883 l 796 876 l 808 821 l 611 772 q 800 372 800 589 q 698 89 800 192 q 382 -14 596 -14 m 386 81 q 679 292 679 81 q 603 439 679 388 q 386 490 528 490 q 97 289 97 490 q 167 131 97 182 q 386 81 238 81 z "},"ñ":{"ha":838,"x_min":83,"x_max":760,"o":"m 289 803 l 219 803 l 219 853 q 317 961 219 961 q 417 921 358 961 l 447 900 q 513 871 483 871 q 554 924 554 871 l 554 958 l 622 958 l 622 910 q 599 829 622 860 q 531 799 575 799 q 428 840 485 799 l 393 861 q 331 890 357 890 q 289 842 289 890 l 289 803 m 182 0 l 83 0 l 83 686 l 172 686 l 172 471 l 179 471 q 274 633 199 567 q 471 700 350 700 q 685 615 610 700 q 760 400 760 529 l 760 0 l 661 0 l 661 386 q 436 610 661 610 q 247 538 313 610 q 182 332 182 465 l 182 0 z "},"ò":{"ha":840,"x_min":47,"x_max":793,"o":"m 474 778 l 374 778 l 167 958 l 301 958 l 474 778 m 419 -14 q 150 86 253 -14 q 47 343 47 186 q 150 600 47 500 q 419 700 253 700 q 690 600 588 700 q 793 343 793 500 q 690 86 793 186 q 419 -14 588 -14 m 213 145 q 247 110 213 145 q 419 75 281 75 q 627 145 558 75 q 696 343 696 215 q 627 541 696 471 q 419 611 558 611 q 213 541 282 611 q 144 343 144 471 q 213 145 144 215 z "},"ó":{"ha":840,"x_min":47,"x_max":793,"o":"m 469 778 l 368 778 l 543 958 l 676 958 l 469 778 m 419 -14 q 150 86 253 -14 q 47 343 47 186 q 150 600 47 500 q 419 700 253 700 q 690 600 588 700 q 793 343 793 500 q 690 86 793 186 q 419 -14 588 -14 m 213 145 q 247 110 213 145 q 419 75 281 75 q 627 145 558 75 q 696 343 696 215 q 627 541 696 471 q 419 611 558 611 q 213 541 282 611 q 144 343 144 471 q 213 145 144 215 z "},"ô":{"ha":840,"x_min":47,"x_max":793,"o":"m 290 778 l 185 778 l 365 958 l 474 958 l 656 778 l 549 778 l 424 903 l 415 903 l 290 778 m 419 -14 q 150 86 253 -14 q 47 343 47 186 q 150 600 47 500 q 419 700 253 700 q 690 600 588 700 q 793 343 793 500 q 690 86 793 186 q 419 -14 588 -14 m 213 145 q 247 110 213 145 q 419 75 281 75 q 627 145 558 75 q 696 343 696 215 q 627 541 696 471 q 419 611 558 611 q 213 541 282 611 q 144 343 144 471 q 213 145 144 215 z "},"õ":{"ha":840,"x_min":47,"x_max":793,"o":"m 288 803 l 218 803 l 218 853 q 315 961 218 961 q 415 921 357 961 l 444 900 q 511 871 483 871 q 553 924 553 871 l 553 958 l 621 958 l 621 910 q 597 829 621 860 q 529 799 574 799 q 426 840 481 799 l 392 861 q 328 890 353 890 q 288 842 288 890 l 288 803 m 419 -14 q 150 86 253 -14 q 47 343 47 186 q 150 600 47 500 q 419 700 253 700 q 690 600 588 700 q 793 343 793 500 q 690 86 793 186 q 419 -14 588 -14 m 213 145 q 247 110 213 145 q 419 75 281 75 q 627 145 558 75 q 696 343 696 215 q 627 541 696 471 q 419 611 558 611 q 213 541 282 611 q 144 343 144 471 q 213 145 144 215 z "},"ö":{"ha":840,"x_min":47,"x_max":793,"o":"m 582 778 l 488 778 l 488 942 l 582 942 l 582 778 m 353 778 l 258 778 l 258 942 l 353 942 l 353 778 m 419 -14 q 150 86 253 -14 q 47 343 47 186 q 150 600 47 500 q 419 700 253 700 q 690 600 588 700 q 793 343 793 500 q 690 86 793 186 q 419 -14 588 -14 m 213 145 q 247 110 213 145 q 419 75 281 75 q 627 145 558 75 q 696 343 696 215 q 627 541 696 471 q 419 611 558 611 q 213 541 282 611 q 144 343 144 471 q 213 145 144 215 z "},"÷":{"ha":665,"x_min":64,"x_max":604,"o":"m 388 626 l 282 626 l 282 810 l 388 810 l 388 626 m 604 424 l 64 424 l 64 507 l 604 507 l 604 424 m 388 121 l 282 121 l 282 304 l 388 304 l 388 121 z "},"ø":{"ha":840,"x_min":47,"x_max":793,"o":"m 419 -14 q 181 60 278 -14 l 99 -24 l 56 22 l 133 103 q 47 343 47 200 q 150 600 47 500 q 419 700 253 700 q 650 633 556 700 l 721 707 l 765 663 l 697 593 q 793 343 793 494 q 690 86 793 186 q 419 -14 588 -14 m 144 343 q 194 165 144 232 l 589 571 q 419 611 524 611 q 213 541 282 611 q 144 343 144 471 m 419 75 q 627 145 558 75 q 696 343 696 215 q 636 531 696 463 l 240 122 q 419 75 307 75 z "},"ù":{"ha":842,"x_min":79,"x_max":760,"o":"m 474 778 l 372 778 l 167 958 l 300 958 l 474 778 m 371 -14 q 155 71 231 -14 q 79 285 79 156 l 79 686 l 178 686 l 178 300 q 406 75 178 75 q 596 147 531 75 q 661 353 661 219 l 661 686 l 760 686 l 760 0 l 671 0 l 671 214 l 664 214 q 568 52 644 118 q 371 -14 492 -14 z "},"ú":{"ha":842,"x_min":79,"x_max":760,"o":"m 469 778 l 368 778 l 542 958 l 676 958 l 469 778 m 371 -14 q 155 71 231 -14 q 79 285 79 156 l 79 686 l 178 686 l 178 300 q 406 75 178 75 q 596 147 531 75 q 661 353 661 219 l 661 686 l 760 686 l 760 0 l 671 0 l 671 214 l 664 214 q 568 52 644 118 q 371 -14 492 -14 z "},"û":{"ha":842,"x_min":79,"x_max":760,"o":"m 290 778 l 185 778 l 365 958 l 474 958 l 654 778 l 549 778 l 424 903 l 415 903 l 290 778 m 371 -14 q 155 71 231 -14 q 79 285 79 156 l 79 686 l 178 686 l 178 300 q 406 75 178 75 q 596 147 531 75 q 661 353 661 219 l 661 686 l 760 686 l 760 0 l 671 0 l 671 214 l 664 214 q 568 52 644 118 q 371 -14 492 -14 z "},"ü":{"ha":842,"x_min":79,"x_max":760,"o":"m 582 778 l 486 778 l 486 942 l 582 942 l 582 778 m 353 778 l 257 778 l 257 942 l 353 942 l 353 778 m 371 -14 q 155 71 231 -14 q 79 285 79 156 l 79 686 l 178 686 l 178 300 q 406 75 178 75 q 596 147 531 75 q 661 353 661 219 l 661 686 l 760 686 l 760 0 l 671 0 l 671 214 l 664 214 q 568 52 644 118 q 371 -14 492 -14 z "},"ý":{"ha":785,"x_min":7,"x_max":774,"o":"m 439 778 l 338 778 l 513 958 l 646 958 l 439 778 m 174 -236 l 88 -236 l 88 -146 l 192 -146 q 268 -129 243 -146 q 314 -68 293 -112 l 347 1 l 7 686 l 115 686 l 317 278 l 393 110 l 401 110 l 475 279 l 665 686 l 774 686 l 401 -96 q 313 -205 364 -174 q 174 -236 261 -236 z "},"þ":{"ha":843,"x_min":72,"x_max":804,"o":"m 171 -236 l 72 -236 l 72 931 l 171 931 l 171 485 l 172 485 q 277 642 197 585 q 472 700 357 700 q 717 601 629 700 q 804 343 804 503 q 717 85 804 183 q 472 -14 629 -14 q 277 44 357 -14 q 172 201 197 101 l 171 201 l 171 -236 m 171 331 q 245 144 171 211 q 444 76 319 76 q 706 343 706 76 q 638 547 706 485 q 444 608 569 608 q 245 542 319 608 q 171 356 171 475 l 171 331 z "},"ÿ":{"ha":785,"x_min":7,"x_max":774,"o":"m 551 778 l 457 778 l 457 942 l 551 942 l 551 778 m 322 778 l 228 778 l 228 942 l 322 942 l 322 778 m 174 -236 l 88 -236 l 88 -146 l 192 -146 q 268 -129 243 -146 q 314 -68 293 -112 l 347 1 l 7 686 l 115 686 l 317 278 l 393 110 l 401 110 l 475 279 l 665 686 l 774 686 l 401 -96 q 313 -205 364 -174 q 174 -236 261 -236 z "},"Ā":{"ha":994,"x_min":7,"x_max":988,"o":"m 685 1069 l 310 1069 l 310 1142 l 685 1142 l 685 1069 m 115 0 l 7 0 l 428 931 l 565 931 l 988 0 l 876 0 l 751 274 l 240 274 l 115 0 m 440 715 l 281 363 l 711 363 l 550 715 l 499 836 l 490 836 l 440 715 z "},"ā":{"ha":769,"x_min":47,"x_max":690,"o":"m 579 832 l 204 832 l 204 904 l 579 904 l 579 832 m 274 -14 q 109 33 171 -14 q 47 161 47 79 q 268 336 47 313 l 594 372 l 594 425 q 547 568 594 525 q 386 611 499 611 q 161 438 161 611 l 161 432 l 63 432 l 63 438 q 151 625 63 550 q 393 700 240 700 q 616 625 542 700 q 690 429 690 550 l 690 0 l 601 0 l 601 185 l 594 185 q 479 38 564 90 q 274 -14 394 -14 m 146 168 q 296 63 146 63 q 511 123 428 63 q 594 301 594 183 l 594 307 l 299 274 q 182 243 218 267 q 146 168 146 219 z "},"Ă":{"ha":994,"x_min":7,"x_max":988,"o":"m 497 1000 q 366 1042 415 1000 q 317 1154 317 1083 l 317 1168 l 392 1168 l 392 1154 q 416 1088 392 1110 q 497 1067 440 1067 q 578 1088 554 1067 q 603 1154 603 1110 l 603 1168 l 678 1168 l 678 1154 q 628 1042 678 1083 q 497 1000 578 1000 m 115 0 l 7 0 l 428 931 l 565 931 l 988 0 l 876 0 l 751 274 l 240 274 l 115 0 m 440 715 l 281 363 l 711 363 l 550 715 l 499 836 l 490 836 l 440 715 z "},"ă":{"ha":769,"x_min":47,"x_max":690,"o":"m 392 764 q 260 806 310 764 q 211 918 211 847 l 211 950 l 286 950 l 286 918 q 310 852 286 874 q 392 831 335 831 q 474 851 450 831 q 497 918 497 872 l 497 950 l 572 950 l 572 918 q 522 806 572 847 q 392 764 472 764 m 274 -14 q 109 33 171 -14 q 47 161 47 79 q 268 336 47 313 l 594 372 l 594 425 q 547 568 594 525 q 386 611 499 611 q 161 438 161 611 l 161 432 l 63 432 l 63 438 q 151 625 63 550 q 393 700 240 700 q 616 625 542 700 q 690 429 690 550 l 690 0 l 601 0 l 601 185 l 594 185 q 479 38 564 90 q 274 -14 394 -14 m 146 168 q 296 63 146 63 q 511 123 428 63 q 594 301 594 183 l 594 307 l 299 274 q 182 243 218 267 q 146 168 146 219 z "},"Ą":{"ha":994,"x_min":7,"x_max":1042,"o":"m 115 0 l 7 0 l 428 931 l 565 931 l 988 0 l 929 -75 q 894 -144 894 -118 q 957 -192 894 -192 l 1042 -192 l 1042 -260 l 942 -260 q 814 -165 814 -260 q 824 -119 814 -142 q 844 -85 835 -97 q 875 -50 854 -74 l 919 0 l 876 0 l 751 274 l 240 274 l 115 0 m 440 715 l 281 363 l 711 363 l 550 715 l 499 836 l 490 836 l 440 715 z "},"ą":{"ha":769,"x_min":47,"x_max":746,"o":"m 274 -14 q 109 33 171 -14 q 47 161 47 79 q 268 336 47 313 l 594 372 l 594 425 q 547 568 594 525 q 386 611 499 611 q 161 438 161 611 l 161 432 l 63 432 l 63 438 q 151 625 63 550 q 393 700 240 700 q 616 625 542 700 q 690 429 690 550 l 690 0 l 632 -75 q 597 -144 597 -118 q 660 -192 597 -192 l 746 -192 l 746 -260 l 646 -260 q 517 -165 517 -260 q 528 -118 517 -142 q 547 -85 540 -94 q 578 -50 554 -76 l 622 0 l 601 0 l 601 185 l 594 185 q 479 38 564 90 q 274 -14 394 -14 m 146 168 q 296 63 146 63 q 511 123 428 63 q 594 301 594 183 l 594 307 l 299 274 q 182 243 218 267 q 146 168 146 219 z "},"Ć":{"ha":983,"x_min":49,"x_max":935,"o":"m 546 1014 l 442 1014 l 615 1186 l 750 1186 l 546 1014 m 513 -14 q 178 117 307 -14 q 49 465 49 249 q 178 813 49 682 q 513 944 307 944 q 815 849 696 944 q 935 599 935 754 l 935 582 l 828 582 l 828 599 q 747 783 828 718 q 514 849 667 849 q 246 751 339 849 q 153 465 153 654 q 246 179 153 276 q 514 82 339 82 q 747 147 667 82 q 828 332 828 213 l 828 349 l 935 349 l 935 332 q 816 81 935 176 q 513 -14 697 -14 z "},"ć":{"ha":801,"x_min":49,"x_max":753,"o":"m 474 778 l 372 778 l 546 958 l 681 958 l 474 778 m 411 -14 q 148 86 247 -14 q 49 343 49 186 q 148 600 49 500 q 411 700 247 700 q 655 622 557 700 q 753 421 753 543 l 753 410 l 656 410 l 656 418 q 592 560 656 510 q 410 610 528 610 q 147 343 147 610 q 410 76 147 76 q 592 126 528 76 q 656 268 656 176 l 656 276 l 753 276 l 753 265 q 655 65 753 143 q 411 -14 557 -14 z "},"Ĉ":{"ha":983,"x_min":49,"x_max":935,"o":"m 363 1014 l 257 1014 l 438 1194 l 546 1194 l 726 1014 l 621 1014 l 496 1139 l 488 1139 l 363 1014 m 513 -14 q 178 117 307 -14 q 49 465 49 249 q 178 813 49 682 q 513 944 307 944 q 815 849 696 944 q 935 599 935 754 l 935 582 l 828 582 l 828 599 q 747 783 828 718 q 514 849 667 849 q 246 751 339 849 q 153 465 153 654 q 246 179 153 276 q 514 82 339 82 q 747 147 667 82 q 828 332 828 213 l 828 349 l 935 349 l 935 332 q 816 81 935 176 q 513 -14 697 -14 z "},"ĉ":{"ha":801,"x_min":49,"x_max":753,"o":"m 294 778 l 189 778 l 369 958 l 478 958 l 658 778 l 553 778 l 428 903 l 419 903 l 294 778 m 411 -14 q 148 86 247 -14 q 49 343 49 186 q 148 600 49 500 q 411 700 247 700 q 655 622 557 700 q 753 421 753 543 l 753 410 l 656 410 l 656 418 q 592 560 656 510 q 410 610 528 610 q 147 343 147 610 q 410 76 147 76 q 592 126 528 76 q 656 268 656 176 l 656 276 l 753 276 l 753 265 q 655 65 753 143 q 411 -14 557 -14 z "},"Ċ":{"ha":983,"x_min":49,"x_max":935,"o":"m 540 1014 l 442 1014 l 442 1178 l 540 1178 l 540 1014 m 513 -14 q 178 117 307 -14 q 49 465 49 249 q 178 813 49 682 q 513 944 307 944 q 815 849 696 944 q 935 599 935 754 l 935 582 l 828 582 l 828 599 q 747 783 828 718 q 514 849 667 849 q 246 751 339 849 q 153 465 153 654 q 246 179 153 276 q 514 82 339 82 q 747 147 667 82 q 828 332 828 213 l 828 349 l 935 349 l 935 332 q 816 81 935 176 q 513 -14 697 -14 z "},"ċ":{"ha":801,"x_min":49,"x_max":753,"o":"m 474 778 l 375 778 l 375 942 l 474 942 l 474 778 m 411 -14 q 148 86 247 -14 q 49 343 49 186 q 148 600 49 500 q 411 700 247 700 q 655 622 557 700 q 753 421 753 543 l 753 410 l 656 410 l 656 418 q 592 560 656 510 q 410 610 528 610 q 147 343 147 610 q 410 76 147 76 q 592 126 528 76 q 656 268 656 176 l 656 276 l 753 276 l 753 265 q 655 65 753 143 q 411 -14 557 -14 z "},"Č":{"ha":983,"x_min":49,"x_max":935,"o":"m 621 1194 l 726 1194 l 546 1014 l 438 1014 l 257 1194 l 363 1194 l 488 1069 l 496 1069 l 621 1194 m 513 -14 q 178 117 307 -14 q 49 465 49 249 q 178 813 49 682 q 513 944 307 944 q 815 849 696 944 q 935 599 935 754 l 935 582 l 828 582 l 828 599 q 747 783 828 718 q 514 849 667 849 q 246 751 339 849 q 153 465 153 654 q 246 179 153 276 q 514 82 339 82 q 747 147 667 82 q 828 332 828 213 l 828 349 l 935 349 l 935 332 q 816 81 935 176 q 513 -14 697 -14 z "},"č":{"ha":801,"x_min":49,"x_max":753,"o":"m 478 778 l 369 778 l 189 958 l 297 958 l 419 833 l 428 833 l 550 958 l 658 958 l 478 778 m 411 -14 q 148 86 247 -14 q 49 343 49 186 q 148 600 49 500 q 411 700 247 700 q 655 622 557 700 q 753 421 753 543 l 753 410 l 656 410 l 656 418 q 592 560 656 510 q 410 610 528 610 q 147 343 147 610 q 410 76 147 76 q 592 126 528 76 q 656 268 656 176 l 656 276 l 753 276 l 753 265 q 655 65 753 143 q 411 -14 557 -14 z "},"Ď":{"ha":996,"x_min":86,"x_max":947,"o":"m 646 1194 l 751 1194 l 571 1014 l 463 1014 l 281 1194 l 388 1194 l 513 1069 l 521 1069 l 646 1194 m 490 0 l 86 0 l 86 931 l 490 931 q 824 805 700 931 q 947 465 947 679 q 824 126 947 251 q 490 0 700 0 m 490 840 l 186 840 l 186 90 l 490 90 q 843 465 843 90 q 490 840 843 840 z "},"ď":{"ha":918,"x_min":38,"x_max":936,"o":"m 379 -14 q 128 85 218 -14 q 38 343 38 183 q 126 601 38 503 q 371 700 215 700 q 565 644 489 700 q 665 494 642 588 l 672 494 l 672 931 l 771 931 l 771 0 l 681 0 l 681 203 l 675 203 q 572 43 650 100 q 379 -14 493 -14 m 858 653 l 836 653 l 836 704 l 857 704 q 876 709 871 704 q 882 729 882 714 l 882 760 l 839 760 l 839 931 l 936 931 l 936 732 q 858 653 936 653 m 138 343 q 207 139 138 201 q 404 76 276 76 q 599 144 526 76 q 672 332 672 211 l 672 344 q 601 540 672 471 q 401 608 529 608 q 138 343 138 608 z "},"Đ":{"ha":1063,"x_min":14,"x_max":1014,"o":"m 557 0 l 154 0 l 154 421 l 14 421 l 14 510 l 154 510 l 154 931 l 557 931 q 890 805 767 931 q 1014 465 1014 679 q 890 126 1014 251 q 557 0 767 0 m 579 421 l 253 421 l 253 90 l 557 90 q 822 183 735 90 q 910 465 910 276 q 822 747 910 654 q 557 840 735 840 l 253 840 l 253 510 l 579 510 l 579 421 z "},"đ":{"ha":888,"x_min":38,"x_max":878,"o":"m 374 -14 q 126 76 214 -14 q 38 315 38 167 q 125 553 38 463 q 367 644 213 644 q 563 588 483 644 q 665 444 642 532 l 672 444 l 672 743 l 336 743 l 336 824 l 672 824 l 672 931 l 771 931 l 771 824 l 878 824 l 878 743 l 771 743 l 771 0 l 681 0 l 681 196 l 675 196 q 570 42 651 99 q 374 -14 489 -14 m 138 315 q 205 132 138 188 q 399 76 272 76 q 598 137 524 76 q 672 304 672 197 l 672 317 q 599 488 672 424 q 396 553 525 553 q 138 315 138 553 z "},"Ē":{"ha":844,"x_min":83,"x_max":790,"o":"m 624 1069 l 249 1069 l 249 1142 l 624 1142 l 624 1069 m 790 0 l 83 0 l 83 931 l 790 931 l 790 840 l 182 840 l 182 513 l 769 513 l 769 424 l 182 424 l 182 90 l 790 90 l 790 0 z "},"ē":{"ha":800,"x_min":49,"x_max":753,"o":"m 588 832 l 213 832 l 213 904 l 588 904 l 588 832 m 410 -14 q 147 83 244 -14 q 49 343 49 179 q 147 601 49 501 q 408 700 244 700 q 658 615 563 700 q 753 379 753 529 q 746 315 753 346 l 142 315 q 408 68 150 68 q 644 228 644 68 l 644 238 l 743 238 l 743 228 q 649 53 743 121 q 410 -14 554 -14 m 407 618 q 142 376 153 618 l 660 376 l 660 397 q 594 562 660 506 q 407 618 529 618 z "},"Ĕ":{"ha":844,"x_min":83,"x_max":790,"o":"m 436 1000 q 305 1042 354 1000 q 256 1154 256 1083 l 256 1168 l 331 1168 l 331 1154 q 355 1088 331 1110 q 436 1067 379 1067 q 517 1088 493 1067 q 542 1154 542 1110 l 542 1168 l 617 1168 l 617 1154 q 567 1042 617 1083 q 436 1000 517 1000 m 790 0 l 83 0 l 83 931 l 790 931 l 790 840 l 182 840 l 182 513 l 769 513 l 769 424 l 182 424 l 182 90 l 790 90 l 790 0 z "},"ĕ":{"ha":800,"x_min":49,"x_max":753,"o":"m 400 764 q 269 806 319 764 q 219 918 219 847 l 219 950 l 294 950 l 294 918 q 319 852 294 874 q 400 831 344 831 q 482 851 458 831 q 506 918 506 872 l 506 950 l 581 950 l 581 918 q 531 806 581 847 q 400 764 482 764 m 410 -14 q 147 83 244 -14 q 49 343 49 179 q 147 601 49 501 q 408 700 244 700 q 658 615 563 700 q 753 379 753 529 q 746 315 753 346 l 142 315 q 408 68 150 68 q 644 228 644 68 l 644 238 l 743 238 l 743 228 q 649 53 743 121 q 410 -14 554 -14 m 407 618 q 142 376 153 618 l 660 376 l 660 397 q 594 562 660 506 q 407 618 529 618 z "},"Ė":{"ha":844,"x_min":83,"x_max":790,"o":"m 485 1014 l 386 1014 l 386 1178 l 485 1178 l 485 1014 m 790 0 l 83 0 l 83 931 l 790 931 l 790 840 l 182 840 l 182 513 l 769 513 l 769 424 l 182 424 l 182 90 l 790 90 l 790 0 z "},"ė":{"ha":800,"x_min":49,"x_max":753,"o":"m 450 778 l 351 778 l 351 942 l 450 942 l 450 778 m 410 -14 q 147 83 244 -14 q 49 343 49 179 q 147 601 49 501 q 408 700 244 700 q 658 615 563 700 q 753 379 753 529 q 746 315 753 346 l 142 315 q 408 68 150 68 q 644 228 644 68 l 644 238 l 743 238 l 743 228 q 649 53 743 121 q 410 -14 554 -14 m 407 618 q 142 376 153 618 l 660 376 l 660 397 q 594 562 660 506 q 407 618 529 618 z "},"Ę":{"ha":844,"x_min":83,"x_max":844,"o":"m 769 424 l 182 424 l 182 90 l 790 90 l 790 0 l 732 -75 q 697 -144 697 -118 q 760 -192 697 -192 l 844 -192 l 844 -260 l 744 -260 q 617 -165 617 -260 q 627 -119 617 -142 q 647 -85 638 -97 q 678 -50 657 -74 l 722 0 l 83 0 l 83 931 l 790 931 l 790 840 l 182 840 l 182 513 l 769 513 l 769 424 z "},"ę":{"ha":800,"x_min":49,"x_max":753,"o":"m 410 -14 q 147 83 244 -14 q 49 343 49 179 q 147 601 49 501 q 408 700 244 700 q 658 615 563 700 q 753 379 753 529 q 746 315 753 346 l 142 315 q 408 68 150 68 q 644 228 644 68 l 644 238 l 743 238 l 743 228 q 673 74 743 138 q 488 -8 603 10 l 436 -75 q 401 -144 401 -118 q 464 -192 401 -192 l 550 -192 l 550 -260 l 450 -260 q 321 -165 321 -260 q 333 -118 321 -142 q 351 -85 344 -94 q 382 -50 358 -76 l 414 -14 l 410 -14 m 407 618 q 142 376 153 618 l 660 376 l 660 397 q 594 562 660 506 q 407 618 529 618 z "},"Ě":{"ha":844,"x_min":83,"x_max":790,"o":"m 565 1194 l 671 1194 l 490 1014 l 382 1014 l 200 1194 l 307 1194 l 432 1069 l 440 1069 l 565 1194 m 790 0 l 83 0 l 83 931 l 790 931 l 790 840 l 182 840 l 182 513 l 769 513 l 769 424 l 182 424 l 182 90 l 790 90 l 790 0 z "},"ě":{"ha":800,"x_min":49,"x_max":753,"o":"m 454 778 l 346 778 l 165 958 l 274 958 l 396 833 l 404 833 l 528 958 l 636 958 l 454 778 m 410 -14 q 147 83 244 -14 q 49 343 49 179 q 147 601 49 501 q 408 700 244 700 q 658 615 563 700 q 753 379 753 529 q 746 315 753 346 l 142 315 q 408 68 150 68 q 644 228 644 68 l 644 238 l 743 238 l 743 228 q 649 53 743 121 q 410 -14 554 -14 m 407 618 q 142 376 153 618 l 660 376 l 660 397 q 594 562 660 506 q 407 618 529 618 z "},"Ĝ":{"ha":1008,"x_min":49,"x_max":943,"o":"m 389 1014 l 283 1014 l 464 1194 l 574 1194 l 754 1014 l 649 1014 l 524 1139 l 515 1139 l 389 1014 m 500 -14 q 174 117 300 -14 q 49 465 49 249 q 179 813 49 682 q 519 944 310 944 q 823 851 704 944 q 942 606 942 758 l 942 593 l 835 593 l 835 606 q 753 785 835 722 q 518 849 671 849 q 247 751 340 849 q 153 465 153 654 q 246 179 153 276 q 514 82 339 82 q 762 147 681 82 q 843 346 843 211 l 843 381 l 474 381 l 474 458 l 943 458 l 943 0 l 854 0 l 854 203 l 847 203 q 721 40 813 94 q 500 -14 629 -14 z "},"ĝ":{"ha":854,"x_min":49,"x_max":771,"o":"m 286 778 l 182 778 l 363 958 l 471 958 l 651 778 l 546 778 l 421 903 l 413 903 l 286 778 m 378 56 q 138 145 226 56 q 49 378 49 235 q 141 610 49 521 q 389 700 233 700 q 577 650 500 700 q 675 510 654 600 l 682 510 l 682 686 l 771 686 l 771 65 q 678 -174 771 -97 q 421 -250 585 -250 q 185 -182 278 -250 q 93 3 93 -114 l 192 3 q 249 -126 192 -86 q 425 -165 307 -165 q 616 -116 560 -165 q 672 60 672 -67 l 672 239 l 665 239 q 568 106 643 157 q 378 56 493 56 m 411 613 q 147 378 147 613 q 404 143 147 143 q 602 203 532 143 q 672 374 672 264 l 672 397 q 601 555 672 497 q 411 613 531 613 z "},"Ğ":{"ha":1008,"x_min":49,"x_max":943,"o":"m 519 1000 q 388 1042 438 1000 q 339 1154 339 1083 l 339 1168 l 414 1168 l 414 1154 q 438 1088 414 1110 q 519 1067 463 1067 q 601 1088 576 1067 q 625 1154 625 1110 l 625 1168 l 700 1168 l 700 1154 q 650 1042 700 1083 q 519 1000 600 1000 m 500 -14 q 174 117 300 -14 q 49 465 49 249 q 179 813 49 682 q 519 944 310 944 q 823 851 704 944 q 942 606 942 758 l 942 593 l 835 593 l 835 606 q 753 785 835 722 q 518 849 671 849 q 247 751 340 849 q 153 465 153 654 q 246 179 153 276 q 514 82 339 82 q 762 147 681 82 q 843 346 843 211 l 843 381 l 474 381 l 474 458 l 943 458 l 943 0 l 854 0 l 854 203 l 847 203 q 721 40 813 94 q 500 -14 629 -14 z "},"ğ":{"ha":854,"x_min":49,"x_max":771,"o":"m 417 764 q 285 806 335 764 q 236 918 236 847 l 236 950 l 311 950 l 311 918 q 336 852 311 874 q 417 831 361 831 q 499 851 475 831 q 522 918 522 872 l 522 950 l 597 950 l 597 918 q 547 806 597 847 q 417 764 497 764 m 378 56 q 138 145 226 56 q 49 378 49 235 q 141 610 49 521 q 389 700 233 700 q 577 650 500 700 q 675 510 654 600 l 682 510 l 682 686 l 771 686 l 771 65 q 678 -174 771 -97 q 421 -250 585 -250 q 185 -182 278 -250 q 93 3 93 -114 l 192 3 q 249 -126 192 -86 q 425 -165 307 -165 q 616 -116 560 -165 q 672 60 672 -67 l 672 239 l 665 239 q 568 106 643 157 q 378 56 493 56 m 411 613 q 147 378 147 613 q 404 143 147 143 q 602 203 532 143 q 672 374 672 264 l 672 397 q 601 555 672 497 q 411 613 531 613 z "},"Ġ":{"ha":1008,"x_min":49,"x_max":943,"o":"m 568 1014 l 469 1014 l 469 1178 l 568 1178 l 568 1014 m 500 -14 q 174 117 300 -14 q 49 465 49 249 q 179 813 49 682 q 519 944 310 944 q 823 851 704 944 q 942 606 942 758 l 942 593 l 835 593 l 835 606 q 753 785 835 722 q 518 849 671 849 q 247 751 340 849 q 153 465 153 654 q 246 179 153 276 q 514 82 339 82 q 762 147 681 82 q 843 346 843 211 l 843 381 l 474 381 l 474 458 l 943 458 l 943 0 l 854 0 l 854 203 l 847 203 q 721 40 813 94 q 500 -14 629 -14 z "},"ġ":{"ha":854,"x_min":49,"x_max":771,"o":"m 465 778 l 367 778 l 367 942 l 465 942 l 465 778 m 378 56 q 138 145 226 56 q 49 378 49 235 q 141 610 49 521 q 389 700 233 700 q 577 650 500 700 q 675 510 654 600 l 682 510 l 682 686 l 771 686 l 771 65 q 678 -174 771 -97 q 421 -250 585 -250 q 185 -182 278 -250 q 93 3 93 -114 l 192 3 q 249 -126 192 -86 q 425 -165 307 -165 q 616 -116 560 -165 q 672 60 672 -67 l 672 239 l 665 239 q 568 106 643 157 q 378 56 493 56 m 411 613 q 147 378 147 613 q 404 143 147 143 q 602 203 532 143 q 672 374 672 264 l 672 397 q 601 555 672 497 q 411 613 531 613 z "},"Ģ":{"ha":1008,"x_min":49,"x_max":943,"o":"m 500 -14 q 174 117 300 -14 q 49 465 49 249 q 179 813 49 682 q 519 944 310 944 q 823 851 704 944 q 942 606 942 758 l 942 593 l 835 593 l 835 606 q 753 785 835 722 q 518 849 671 849 q 247 751 340 849 q 153 465 153 654 q 246 179 153 276 q 514 82 339 82 q 762 147 681 82 q 843 346 843 211 l 843 381 l 474 381 l 474 458 l 943 458 l 943 0 l 854 0 l 854 203 l 847 203 q 721 40 813 94 q 500 -14 629 -14 m 408 -278 l 307 -278 l 429 -97 l 558 -97 l 408 -278 z "},"ģ":{"ha":854,"x_min":49,"x_max":771,"o":"m 457 958 l 549 958 l 433 778 l 314 778 l 457 958 m 378 56 q 138 145 226 56 q 49 378 49 235 q 141 610 49 521 q 389 700 233 700 q 577 650 500 700 q 675 510 654 600 l 682 510 l 682 686 l 771 686 l 771 65 q 678 -174 771 -97 q 421 -250 585 -250 q 185 -182 278 -250 q 93 3 93 -114 l 192 3 q 249 -126 192 -86 q 425 -165 307 -165 q 616 -116 560 -165 q 672 60 672 -67 l 672 239 l 665 239 q 568 106 643 157 q 378 56 493 56 m 411 613 q 147 378 147 613 q 404 143 147 143 q 602 203 532 143 q 672 374 672 264 l 672 397 q 601 555 672 497 q 411 613 531 613 z "},"Ĥ":{"ha":963,"x_min":83,"x_max":879,"o":"m 351 1014 l 246 1014 l 426 1194 l 536 1194 l 717 1014 l 611 1014 l 486 1139 l 478 1139 l 351 1014 m 182 0 l 83 0 l 83 931 l 182 931 l 182 514 l 781 514 l 781 931 l 879 931 l 879 0 l 781 0 l 781 424 l 182 424 l 182 0 z "},"ĥ":{"ha":842,"x_min":-104,"x_max":763,"o":"m 1 1014 l -104 1014 l 76 1194 l 186 1194 l 367 1014 l 261 1014 l 136 1139 l 128 1139 l 1 1014 m 182 0 l 83 0 l 83 931 l 182 931 l 182 476 l 189 476 q 280 636 207 572 q 475 700 353 700 q 688 617 614 700 q 763 399 763 533 l 763 0 l 664 0 l 664 386 q 608 556 664 503 q 436 610 553 610 q 182 322 182 610 l 182 0 z "},"Ħ":{"ha":963,"x_min":-46,"x_max":1007,"o":"m 182 0 l 83 0 l 83 704 l -46 704 l -46 793 l 83 793 l 83 931 l 182 931 l 182 793 l 781 793 l 781 931 l 879 931 l 879 793 l 1007 793 l 1007 704 l 879 704 l 879 0 l 781 0 l 781 424 l 182 424 l 182 0 m 182 514 l 781 514 l 781 704 l 182 704 l 182 514 z "},"ħ":{"ha":840,"x_min":-10,"x_max":772,"o":"m 190 0 l 92 0 l 92 743 l -10 743 l -10 824 l 92 824 l 92 931 l 190 931 l 190 824 l 532 824 l 532 743 l 190 743 l 190 400 l 197 400 q 290 560 217 496 q 489 624 364 624 q 699 540 626 624 q 772 322 772 457 l 772 0 l 674 0 l 674 310 q 619 480 674 426 q 450 533 565 533 q 190 246 190 533 l 190 0 z "},"Ĩ":{"ha":264,"x_min":-68,"x_max":333,"o":"m 0 1039 l -68 1039 l -68 1088 q 28 1197 -68 1197 q 128 1157 69 1197 l 158 1136 q 224 1107 194 1107 q 265 1160 265 1107 l 265 1194 l 333 1194 l 333 1146 q 310 1065 333 1096 q 242 1035 286 1035 q 139 1076 196 1035 l 106 1097 q 40 1126 69 1126 q 0 1076 0 1126 l 0 1039 m 182 0 l 83 0 l 83 931 l 182 931 l 182 0 z "},"ĩ":{"ha":256,"x_min":-74,"x_max":328,"o":"m -6 803 l -74 803 l -74 853 q 24 961 -74 961 q 122 921 64 961 l 153 900 q 218 871 189 871 q 260 924 260 871 l 260 958 l 328 958 l 328 910 q 304 829 328 860 q 236 799 281 799 q 133 840 190 799 l 100 861 q 36 890 61 890 q -6 842 -6 890 l -6 803 m 176 0 l 78 0 l 78 694 l 176 694 l 176 0 z "},"Ī":{"ha":264,"x_min":-56,"x_max":319,"o":"m 319 1069 l -56 1069 l -56 1142 l 319 1142 l 319 1069 m 182 0 l 83 0 l 83 931 l 182 931 l 182 0 z "},"ī":{"ha":256,"x_min":-60,"x_max":315,"o":"m 315 832 l -60 832 l -60 904 l 315 904 l 315 832 m 176 0 l 78 0 l 78 694 l 176 694 l 176 0 z "},"Ĭ":{"ha":264,"x_min":-49,"x_max":313,"o":"m 132 1000 q 1 1042 51 1000 q -49 1154 -49 1083 l -49 1168 l 26 1168 l 26 1154 q 132 1067 26 1067 q 213 1088 189 1067 q 238 1154 238 1110 l 238 1168 l 313 1168 l 313 1154 q 263 1042 313 1083 q 132 1000 214 1000 m 182 0 l 83 0 l 83 931 l 182 931 l 182 0 z "},"ĭ":{"ha":256,"x_min":-53,"x_max":308,"o":"m 259 806 q 234 785 259 806 q 128 764 210 764 q -3 806 46 764 q -53 918 -53 847 l -53 950 l 22 950 l 22 918 q 47 852 22 874 q 128 831 72 831 q 210 851 186 831 q 233 918 233 872 l 233 950 l 308 950 l 308 918 q 259 806 308 847 m 176 0 l 78 0 l 78 694 l 176 694 l 176 0 z "},"Į":{"ha":264,"x_min":8,"x_max":236,"o":"m 236 -260 l 136 -260 q 8 -165 8 -260 q 19 -119 8 -142 q 39 -85 29 -97 q 69 -50 49 -74 l 113 0 l 83 0 l 83 931 l 182 931 l 182 0 l 124 -75 q 89 -144 89 -118 q 151 -192 89 -192 l 236 -192 l 236 -260 z "},"į":{"ha":264,"x_min":8,"x_max":236,"o":"m 182 774 l 83 774 l 83 931 l 182 931 l 182 774 m 236 -260 l 136 -260 q 8 -165 8 -260 q 19 -119 8 -142 q 39 -85 29 -97 q 69 -50 49 -74 l 113 0 l 83 0 l 83 686 l 182 686 l 182 0 l 124 -75 q 89 -144 89 -118 q 151 -192 89 -192 l 236 -192 l 236 -260 z "},"İ":{"ha":264,"x_min":83,"x_max":182,"o":"m 182 1014 l 83 1014 l 83 1178 l 182 1178 l 182 1014 m 182 0 l 83 0 l 83 931 l 182 931 l 182 0 z "},"ı":{"ha":256,"x_min":78,"x_max":176,"o":"m 176 0 l 78 0 l 78 694 l 176 694 l 176 0 z "},"Ĳ":{"ha":1119,"x_min":83,"x_max":1043,"o":"m 182 0 l 83 0 l 83 931 l 182 931 l 182 0 m 671 -14 q 390 81 481 -14 q 299 335 299 176 l 299 382 l 401 382 l 401 331 q 464 144 401 204 q 671 83 526 83 q 877 143 814 83 q 940 326 940 203 l 940 931 l 1043 931 l 1043 332 q 953 81 1043 175 q 671 -14 863 -14 z "},"ĳ":{"ha":531,"x_min":83,"x_max":447,"o":"m 182 774 l 83 774 l 83 931 l 182 931 l 182 774 m 447 774 l 349 774 l 349 931 l 447 931 l 447 774 m 182 0 l 83 0 l 83 686 l 182 686 l 182 0 m 235 -236 l 183 -236 l 183 -156 l 242 -156 q 349 -53 349 -156 l 349 686 l 447 686 l 447 -32 q 235 -236 447 -236 z "},"Ĵ":{"ha":856,"x_min":35,"x_max":968,"o":"m 603 1014 l 497 1014 l 678 1194 l 788 1194 l 968 1014 l 863 1014 l 738 1139 l 729 1139 l 603 1014 m 407 -14 q 126 81 217 -14 q 35 335 35 176 l 35 382 l 138 382 l 138 331 q 200 144 138 204 q 407 83 263 83 q 613 143 550 83 q 676 326 676 203 l 676 931 l 779 931 l 779 332 q 689 81 779 175 q 407 -14 599 -14 z "},"ĵ":{"ha":267,"x_min":-101,"x_max":368,"o":"m 4 778 l -101 778 l 79 958 l 188 958 l 368 778 l 263 778 l 138 903 l 129 903 l 4 778 m -29 -236 l -82 -236 l -82 -156 l -24 -156 q 85 -53 85 -156 l 85 686 l 183 686 l 183 -32 q 126 -187 183 -139 q -29 -236 68 -236 z "},"Ķ":{"ha":936,"x_min":83,"x_max":918,"o":"m 182 0 l 83 0 l 83 931 l 182 931 l 182 511 l 506 511 l 799 931 l 917 931 l 590 471 l 918 0 l 800 0 l 508 415 l 182 415 l 182 0 m 411 -278 l 308 -278 l 431 -97 l 561 -97 l 411 -278 z "},"ķ":{"ha":771,"x_min":83,"x_max":758,"o":"m 182 0 l 83 0 l 83 931 l 182 931 l 182 399 l 413 399 l 642 686 l 758 686 l 493 358 l 757 0 l 642 0 l 411 308 l 182 308 l 182 0 m 293 -278 l 201 -278 l 318 -97 l 438 -97 l 293 -278 z "},"Ĺ":{"ha":800,"x_min":83,"x_max":772,"o":"m 186 1014 l 83 1014 l 256 1186 l 392 1186 l 186 1014 m 772 0 l 83 0 l 83 931 l 182 931 l 182 90 l 772 90 l 772 0 z "},"ĺ":{"ha":264,"x_min":83,"x_max":394,"o":"m 189 1014 l 85 1014 l 258 1186 l 394 1186 l 189 1014 m 182 0 l 83 0 l 83 931 l 182 931 l 182 0 z "},"Ļ":{"ha":800,"x_min":83,"x_max":772,"o":"m 772 0 l 83 0 l 83 931 l 182 931 l 182 90 l 772 90 l 772 0 m 347 -278 l 244 -278 l 368 -97 l 497 -97 l 347 -278 z "},"ļ":{"ha":264,"x_min":-47,"x_max":188,"o":"m 182 0 l 83 0 l 83 931 l 182 931 l 182 0 m 44 -278 l -47 -278 l 69 -97 l 188 -97 l 44 -278 z "},"Ľ":{"ha":800,"x_min":83,"x_max":772,"o":"m 772 0 l 83 0 l 83 931 l 182 931 l 182 90 l 772 90 l 772 0 m 493 611 l 465 611 l 465 675 l 493 675 q 515 681 508 675 q 521 704 521 686 l 521 738 l 467 738 l 467 931 l 589 931 l 589 707 q 493 611 589 611 z "},"ľ":{"ha":342,"x_min":83,"x_max":350,"o":"m 182 0 l 83 0 l 83 931 l 182 931 l 182 0 m 272 653 l 250 653 l 250 704 l 271 704 q 290 709 285 704 q 296 729 296 714 l 296 760 l 253 760 l 253 931 l 350 931 l 350 732 q 272 653 350 653 z "},"Ŀ":{"ha":800,"x_min":83,"x_max":772,"o":"m 182 1014 l 83 1014 l 83 1178 l 182 1178 l 182 1014 m 772 0 l 83 0 l 83 931 l 182 931 l 182 90 l 772 90 l 772 0 z "},"ŀ":{"ha":332,"x_min":83,"x_max":350,"o":"m 182 0 l 83 0 l 83 931 l 182 931 l 182 0 m 350 383 l 251 383 l 251 547 l 350 547 l 350 383 z "},"Ł":{"ha":871,"x_min":14,"x_max":843,"o":"m 843 0 l 154 0 l 154 444 l 14 389 l 14 483 l 154 539 l 154 931 l 253 931 l 253 576 l 588 708 l 588 614 l 253 482 l 253 90 l 843 90 l 843 0 z "},"ł":{"ha":400,"x_min":-14,"x_max":414,"o":"m 260 0 l 161 0 l 161 501 l 21 422 l -14 486 l 161 586 l 161 931 l 260 931 l 260 642 l 379 710 l 414 644 l 260 557 l 260 0 z "},"Ń":{"ha":978,"x_min":83,"x_max":896,"o":"m 543 1014 l 439 1014 l 613 1186 l 749 1186 l 543 1014 m 182 0 l 83 0 l 83 931 l 192 931 l 679 299 l 792 143 l 800 143 l 797 296 l 797 931 l 896 931 l 896 0 l 788 0 l 303 625 l 186 782 l 179 782 l 182 626 l 182 0 z "},"ń":{"ha":838,"x_min":83,"x_max":760,"o":"m 472 778 l 371 778 l 544 958 l 679 958 l 472 778 m 182 0 l 83 0 l 83 686 l 172 686 l 172 471 l 179 471 q 274 633 199 567 q 471 700 350 700 q 685 615 610 700 q 760 400 760 529 l 760 0 l 661 0 l 661 386 q 436 610 661 610 q 247 538 313 610 q 182 332 182 465 l 182 0 z "},"Ņ":{"ha":978,"x_min":83,"x_max":896,"o":"m 182 0 l 83 0 l 83 931 l 192 931 l 679 299 l 792 143 l 800 143 l 797 296 l 797 931 l 896 931 l 896 0 l 788 0 l 303 625 l 186 782 l 179 782 l 182 626 l 182 0 m 407 -278 l 304 -278 l 426 -97 l 557 -97 l 407 -278 z "},"ņ":{"ha":838,"x_min":83,"x_max":760,"o":"m 182 0 l 83 0 l 83 686 l 172 686 l 172 471 l 179 471 q 274 633 199 567 q 471 700 350 700 q 685 615 610 700 q 760 400 760 529 l 760 0 l 661 0 l 661 386 q 436 610 661 610 q 247 538 313 610 q 182 332 182 465 l 182 0 m 336 -278 l 244 -278 l 361 -97 l 481 -97 l 336 -278 z "},"Ň":{"ha":978,"x_min":83,"x_max":896,"o":"m 619 1194 l 725 1194 l 544 1014 l 435 1014 l 254 1194 l 360 1194 l 485 1069 l 494 1069 l 619 1194 m 182 0 l 83 0 l 83 931 l 192 931 l 679 299 l 792 143 l 800 143 l 797 296 l 797 931 l 896 931 l 896 0 l 788 0 l 303 625 l 186 782 l 179 782 l 182 626 l 182 0 z "},"ň":{"ha":838,"x_min":83,"x_max":760,"o":"m 476 778 l 368 778 l 186 958 l 294 958 l 418 833 l 426 833 l 549 958 l 657 958 l 476 778 m 182 0 l 83 0 l 83 686 l 172 686 l 172 471 l 179 471 q 274 633 199 567 q 471 700 350 700 q 685 615 610 700 q 760 400 760 529 l 760 0 l 661 0 l 661 386 q 436 610 661 610 q 247 538 313 610 q 182 332 182 465 l 182 0 z "},"Ŋ":{"ha":978,"x_min":83,"x_max":896,"o":"m 701 -236 l 632 -236 l 632 -144 l 706 -144 q 774 -131 757 -144 q 792 -74 792 -117 l 792 -6 l 329 590 l 186 782 l 179 782 l 182 592 l 182 0 l 83 0 l 83 931 l 192 931 l 656 329 l 792 143 l 800 143 l 797 326 l 797 931 l 896 931 l 896 -49 q 847 -194 896 -153 q 701 -236 797 -236 z "},"ŋ":{"ha":817,"x_min":72,"x_max":749,"o":"m 171 0 l 72 0 l 72 686 l 161 686 l 161 471 l 168 471 q 264 633 188 567 q 461 700 340 700 q 674 615 600 700 q 749 400 749 529 l 749 -46 q 690 -190 749 -143 q 536 -236 632 -236 l 485 -236 l 485 -156 l 543 -156 q 650 -53 650 -156 l 650 386 q 425 610 650 610 q 236 538 301 610 q 171 332 171 465 l 171 0 z "},"Ō":{"ha":1039,"x_min":49,"x_max":990,"o":"m 707 1069 l 332 1069 l 332 1142 l 707 1142 l 707 1069 m 518 -14 q 179 117 310 -14 q 49 465 49 249 q 179 813 49 682 q 518 944 310 944 q 860 813 729 944 q 990 465 990 682 q 860 117 990 249 q 518 -14 729 -14 m 247 179 q 293 131 247 179 q 518 82 340 82 q 791 179 696 82 q 886 465 886 276 q 791 751 886 654 q 518 849 696 849 q 247 751 340 849 q 153 465 153 654 q 247 179 153 276 z "},"ō":{"ha":840,"x_min":47,"x_max":793,"o":"m 607 832 l 232 832 l 232 904 l 607 904 l 607 832 m 419 -14 q 150 86 253 -14 q 47 343 47 186 q 150 600 47 500 q 419 700 253 700 q 690 600 588 700 q 793 343 793 500 q 690 86 793 186 q 419 -14 588 -14 m 213 145 q 247 110 213 145 q 419 75 281 75 q 627 145 558 75 q 696 343 696 215 q 627 541 696 471 q 419 611 558 611 q 213 541 282 611 q 144 343 144 471 q 213 145 144 215 z "},"Ŏ":{"ha":1039,"x_min":49,"x_max":990,"o":"m 519 1000 q 388 1042 438 1000 q 339 1154 339 1083 l 339 1168 l 414 1168 l 414 1154 q 438 1088 414 1110 q 519 1067 463 1067 q 601 1088 576 1067 q 625 1154 625 1110 l 625 1168 l 700 1168 l 700 1154 q 650 1042 700 1083 q 519 1000 600 1000 m 518 -14 q 179 117 310 -14 q 49 465 49 249 q 179 813 49 682 q 518 944 310 944 q 860 813 729 944 q 990 465 990 682 q 860 117 990 249 q 518 -14 729 -14 m 247 179 q 293 131 247 179 q 518 82 340 82 q 791 179 696 82 q 886 465 886 276 q 791 751 886 654 q 518 849 696 849 q 247 751 340 849 q 153 465 153 654 q 247 179 153 276 z "},"ŏ":{"ha":840,"x_min":47,"x_max":793,"o":"m 419 764 q 289 806 339 764 q 239 918 239 847 l 239 950 l 314 950 l 314 918 q 339 852 314 874 q 419 831 364 831 q 501 851 478 831 q 525 918 525 872 l 525 950 l 600 950 l 600 918 q 551 806 600 847 q 419 764 501 764 m 419 -14 q 150 86 253 -14 q 47 343 47 186 q 150 600 47 500 q 419 700 253 700 q 690 600 588 700 q 793 343 793 500 q 690 86 793 186 q 419 -14 588 -14 m 213 145 q 247 110 213 145 q 419 75 281 75 q 627 145 558 75 q 696 343 696 215 q 627 541 696 471 q 419 611 558 611 q 213 541 282 611 q 144 343 144 471 q 213 145 144 215 z "},"Ő":{"ha":1039,"x_min":49,"x_max":990,"o":"m 661 1014 l 565 1014 l 706 1186 l 828 1186 l 661 1014 m 432 1014 l 338 1014 l 476 1186 l 600 1186 l 432 1014 m 518 -14 q 179 117 310 -14 q 49 465 49 249 q 179 813 49 682 q 518 944 310 944 q 860 813 729 944 q 990 465 990 682 q 860 117 990 249 q 518 -14 729 -14 m 247 179 q 293 131 247 179 q 518 82 340 82 q 791 179 696 82 q 886 465 886 276 q 791 751 886 654 q 518 849 696 849 q 247 751 340 849 q 153 465 153 654 q 247 179 153 276 z "},"ő":{"ha":840,"x_min":47,"x_max":793,"o":"m 576 778 l 482 778 l 621 958 l 744 958 l 576 778 m 349 778 l 253 778 l 392 958 l 515 958 l 349 778 m 419 -14 q 150 86 253 -14 q 47 343 47 186 q 150 600 47 500 q 419 700 253 700 q 690 600 588 700 q 793 343 793 500 q 690 86 793 186 q 419 -14 588 -14 m 213 145 q 247 110 213 145 q 419 75 281 75 q 627 145 558 75 q 696 343 696 215 q 627 541 696 471 q 419 611 558 611 q 213 541 282 611 q 144 343 144 471 q 213 145 144 215 z "},"Œ":{"ha":1496,"x_min":49,"x_max":1442,"o":"m 1442 0 l 522 0 q 174 125 299 0 q 49 465 49 250 q 174 806 49 681 q 522 931 299 931 l 1442 931 l 1442 840 l 833 840 l 833 513 l 1421 513 l 1421 424 l 833 424 l 833 90 l 1442 90 l 1442 0 m 522 90 l 735 90 l 735 840 l 522 840 q 242 748 332 840 q 153 465 153 656 q 242 183 153 275 q 522 90 332 90 z "},"œ":{"ha":1451,"x_min":47,"x_max":1404,"o":"m 419 -14 q 150 86 253 -14 q 47 343 47 186 q 150 600 47 500 q 419 700 253 700 q 614 655 529 700 q 746 531 699 610 q 871 655 789 610 q 1060 700 953 700 q 1309 615 1214 700 q 1404 379 1404 529 q 1397 315 1404 346 l 793 315 q 1060 68 801 68 q 1296 228 1296 68 l 1296 238 l 1394 238 l 1394 228 q 1300 53 1394 121 q 1061 -14 1206 -14 q 869 30 951 -14 q 744 154 788 74 q 614 31 699 75 q 419 -14 529 -14 m 1058 618 q 793 376 804 618 l 1311 376 l 1311 397 q 1246 562 1311 506 q 1058 618 1181 618 m 213 145 q 247 110 213 145 q 419 75 281 75 q 627 145 558 75 q 696 343 696 215 q 627 541 696 471 q 419 611 558 611 q 213 541 282 611 q 144 343 144 471 q 213 145 144 215 z "},"Ŕ":{"ha":911,"x_min":83,"x_max":881,"o":"m 528 1014 l 424 1014 l 597 1186 l 733 1186 l 528 1014 m 182 0 l 83 0 l 83 931 l 539 931 q 776 859 688 931 q 865 661 865 788 q 787 475 865 544 q 578 403 708 406 l 578 396 q 650 357 621 385 q 706 285 679 329 l 881 0 l 767 0 l 601 269 q 517 356 564 331 q 382 381 471 381 l 182 381 l 182 0 m 182 840 l 182 460 l 538 460 q 763 650 763 460 q 538 840 763 840 l 182 840 z "},"ŕ":{"ha":679,"x_min":83,"x_max":649,"o":"m 415 778 l 314 778 l 488 958 l 622 958 l 415 778 m 182 0 l 83 0 l 83 686 l 172 686 l 172 499 l 179 499 q 258 644 196 588 q 421 700 319 700 q 591 630 533 700 q 649 456 649 560 l 649 388 l 550 388 l 550 440 q 510 572 550 529 q 382 614 471 614 q 182 372 182 614 l 182 0 z "},"Ŗ":{"ha":911,"x_min":83,"x_max":881,"o":"m 182 0 l 83 0 l 83 931 l 539 931 q 776 859 688 931 q 865 661 865 788 q 787 475 865 544 q 578 403 708 406 l 578 396 q 650 357 621 385 q 706 285 679 329 l 881 0 l 767 0 l 601 269 q 517 356 564 331 q 382 381 471 381 l 182 381 l 182 0 m 182 840 l 182 460 l 538 460 q 763 650 763 460 q 538 840 763 840 l 182 840 m 392 -278 l 289 -278 l 413 -97 l 542 -97 l 392 -278 z "},"ŗ":{"ha":679,"x_min":-46,"x_max":649,"o":"m 182 0 l 83 0 l 83 686 l 172 686 l 172 499 l 179 499 q 258 644 196 588 q 421 700 319 700 q 591 630 533 700 q 649 456 649 560 l 649 388 l 550 388 l 550 440 q 510 572 550 529 q 382 614 471 614 q 182 372 182 614 l 182 0 m 46 -278 l -46 -278 l 71 -97 l 190 -97 l 46 -278 z "},"Ř":{"ha":911,"x_min":83,"x_max":881,"o":"m 604 1194 l 710 1194 l 529 1014 l 421 1014 l 239 1194 l 346 1194 l 471 1069 l 479 1069 l 604 1194 m 182 0 l 83 0 l 83 931 l 539 931 q 776 859 688 931 q 865 661 865 788 q 787 475 865 544 q 578 403 708 406 l 578 396 q 650 357 621 385 q 706 285 679 329 l 881 0 l 767 0 l 601 269 q 517 356 564 331 q 382 381 471 381 l 182 381 l 182 0 m 182 840 l 182 460 l 538 460 q 763 650 763 460 q 538 840 763 840 l 182 840 z "},"ř":{"ha":679,"x_min":83,"x_max":649,"o":"m 419 778 l 311 778 l 131 958 l 239 958 l 361 833 l 369 833 l 492 958 l 600 958 l 419 778 m 182 0 l 83 0 l 83 686 l 172 686 l 172 499 l 179 499 q 258 644 196 588 q 421 700 319 700 q 591 630 533 700 q 649 456 649 560 l 649 388 l 550 388 l 550 440 q 510 572 550 529 q 382 614 471 614 q 182 372 182 614 l 182 0 z "},"Ś":{"ha":860,"x_min":43,"x_max":815,"o":"m 478 1014 l 375 1014 l 547 1186 l 683 1186 l 478 1014 m 444 -14 q 145 71 247 -14 q 43 294 43 156 l 43 303 l 143 303 l 143 285 q 214 131 143 182 q 444 79 285 79 q 715 236 715 79 q 669 347 715 311 q 517 406 624 383 l 319 443 q 120 525 193 468 q 47 690 47 582 q 142 870 47 796 q 422 944 236 944 q 706 858 610 944 q 801 636 801 772 l 801 628 l 701 628 l 701 644 q 633 799 701 747 q 415 851 564 851 q 147 697 147 851 q 192 588 147 622 q 346 531 236 554 l 542 492 q 815 244 815 439 q 721 61 815 136 q 444 -14 626 -14 z "},"ś":{"ha":736,"x_min":49,"x_max":690,"o":"m 411 778 l 310 778 l 483 958 l 618 958 l 411 778 m 385 -14 q 138 49 225 -14 q 51 229 51 111 l 51 232 l 150 232 l 150 224 q 204 103 150 138 q 386 68 258 68 q 547 95 500 68 q 593 183 593 122 q 559 260 593 236 q 436 297 525 283 l 253 324 q 101 379 153 338 q 49 503 49 421 q 130 647 49 593 q 353 700 211 700 q 591 637 504 700 q 678 456 678 574 l 678 453 l 579 453 l 579 460 q 528 579 579 540 q 350 618 476 618 q 194 590 242 618 q 146 501 146 563 q 178 425 146 449 q 296 389 210 401 l 464 365 q 634 306 578 349 q 690 183 690 264 q 606 38 690 89 q 385 -14 522 -14 z "},"Ŝ":{"ha":860,"x_min":43,"x_max":815,"o":"m 294 1014 l 189 1014 l 369 1194 l 479 1194 l 660 1014 l 554 1014 l 429 1139 l 421 1139 l 294 1014 m 444 -14 q 145 71 247 -14 q 43 294 43 156 l 43 303 l 143 303 l 143 285 q 214 131 143 182 q 444 79 285 79 q 715 236 715 79 q 669 347 715 311 q 517 406 624 383 l 319 443 q 120 525 193 468 q 47 690 47 582 q 142 870 47 796 q 422 944 236 944 q 706 858 610 944 q 801 636 801 772 l 801 628 l 701 628 l 701 644 q 633 799 701 747 q 415 851 564 851 q 147 697 147 851 q 192 588 147 622 q 346 531 236 554 l 542 492 q 815 244 815 439 q 721 61 815 136 q 444 -14 626 -14 z "},"ŝ":{"ha":736,"x_min":49,"x_max":690,"o":"m 232 778 l 126 778 l 307 958 l 415 958 l 596 778 l 490 778 l 365 903 l 357 903 l 232 778 m 385 -14 q 138 49 225 -14 q 51 229 51 111 l 51 232 l 150 232 l 150 224 q 204 103 150 138 q 386 68 258 68 q 547 95 500 68 q 593 183 593 122 q 559 260 593 236 q 436 297 525 283 l 253 324 q 101 379 153 338 q 49 503 49 421 q 130 647 49 593 q 353 700 211 700 q 591 637 504 700 q 678 456 678 574 l 678 453 l 579 453 l 579 460 q 528 579 579 540 q 350 618 476 618 q 194 590 242 618 q 146 501 146 563 q 178 425 146 449 q 296 389 210 401 l 464 365 q 634 306 578 349 q 690 183 690 264 q 606 38 690 89 q 385 -14 522 -14 z "},"Ş":{"ha":860,"x_min":43,"x_max":815,"o":"m 444 -14 l 443 -14 l 443 -79 l 478 -79 q 563 -107 532 -79 q 594 -181 594 -135 q 564 -256 594 -229 q 478 -283 533 -283 l 367 -283 l 367 -221 l 478 -221 q 526 -182 526 -221 q 478 -142 526 -142 l 381 -142 l 381 -11 q 128 85 214 3 q 43 294 43 167 l 43 303 l 143 303 l 143 285 q 214 131 143 182 q 444 79 285 79 q 715 236 715 79 q 669 347 715 311 q 517 406 624 383 l 319 443 q 120 525 193 468 q 47 690 47 582 q 142 870 47 796 q 422 944 236 944 q 706 858 610 944 q 801 636 801 772 l 801 628 l 701 628 l 701 644 q 633 799 701 747 q 415 851 564 851 q 147 697 147 851 q 192 588 147 622 q 346 531 236 554 l 542 492 q 815 244 815 439 q 721 61 815 136 q 444 -14 626 -14 z "},"ş":{"ha":736,"x_min":49,"x_max":690,"o":"m 446 -283 l 335 -283 l 335 -221 l 446 -221 q 494 -182 494 -221 q 446 -142 494 -142 l 349 -142 l 349 -12 q 128 56 206 -6 q 51 229 51 118 l 51 232 l 150 232 l 150 224 q 204 103 150 138 q 386 68 258 68 q 547 95 500 68 q 593 183 593 122 q 559 260 593 236 q 436 297 525 283 l 253 324 q 101 379 153 338 q 49 503 49 421 q 130 647 49 593 q 353 700 211 700 q 591 637 504 700 q 678 456 678 574 l 678 453 l 579 453 l 579 460 q 528 579 579 540 q 350 618 476 618 q 194 590 242 618 q 146 501 146 563 q 178 425 146 449 q 296 389 210 401 l 464 365 q 634 306 578 349 q 690 183 690 264 q 614 42 690 93 q 410 -14 538 -8 l 410 -79 l 446 -79 q 531 -107 500 -79 q 563 -181 563 -135 q 532 -256 563 -229 q 446 -283 501 -283 z "},"Š":{"ha":860,"x_min":43,"x_max":815,"o":"m 554 1194 l 660 1194 l 479 1014 l 371 1014 l 189 1194 l 296 1194 l 421 1069 l 429 1069 l 554 1194 m 444 -14 q 145 71 247 -14 q 43 294 43 156 l 43 303 l 143 303 l 143 285 q 214 131 143 182 q 444 79 285 79 q 715 236 715 79 q 669 347 715 311 q 517 406 624 383 l 319 443 q 120 525 193 468 q 47 690 47 582 q 142 870 47 796 q 422 944 236 944 q 706 858 610 944 q 801 636 801 772 l 801 628 l 701 628 l 701 644 q 633 799 701 747 q 415 851 564 851 q 147 697 147 851 q 192 588 147 622 q 346 531 236 554 l 542 492 q 815 244 815 439 q 721 61 815 136 q 444 -14 626 -14 z "},"š":{"ha":736,"x_min":49,"x_max":690,"o":"m 415 778 l 307 778 l 126 958 l 235 958 l 357 833 l 365 833 l 488 958 l 596 958 l 415 778 m 385 -14 q 138 49 225 -14 q 51 229 51 111 l 51 232 l 150 232 l 150 224 q 204 103 150 138 q 386 68 258 68 q 547 95 500 68 q 593 183 593 122 q 559 260 593 236 q 436 297 525 283 l 253 324 q 101 379 153 338 q 49 503 49 421 q 130 647 49 593 q 353 700 211 700 q 591 637 504 700 q 678 456 678 574 l 678 453 l 579 453 l 579 460 q 528 579 579 540 q 350 618 476 618 q 194 590 242 618 q 146 501 146 563 q 178 425 146 449 q 296 389 210 401 l 464 365 q 634 306 578 349 q 690 183 690 264 q 606 38 690 89 q 385 -14 522 -14 z "},"Ţ":{"ha":894,"x_min":15,"x_max":879,"o":"m 497 0 l 436 0 l 436 -79 l 471 -79 q 556 -107 525 -79 q 588 -181 588 -135 q 557 -256 588 -229 q 471 -283 526 -283 l 360 -283 l 360 -221 l 471 -221 q 519 -182 519 -221 q 471 -142 519 -142 l 374 -142 l 374 4 l 399 4 l 399 840 l 15 840 l 15 931 l 879 931 l 879 840 l 497 840 l 497 0 z "},"ţ":{"ha":529,"x_min":10,"x_max":554,"o":"m 504 0 l 403 0 l 403 -79 l 438 -79 q 523 -107 492 -79 q 554 -181 554 -135 q 524 -256 554 -229 q 438 -283 493 -283 l 328 -283 l 328 -221 l 438 -221 q 486 -182 486 -221 q 438 -142 486 -142 l 340 -142 l 340 0 q 132 218 132 7 l 132 601 l 10 601 l 10 686 l 132 686 l 132 850 l 232 850 l 232 686 l 504 686 l 504 601 l 232 601 l 232 213 q 267 117 232 143 q 379 90 301 90 l 504 90 l 504 0 z "},"Ť":{"ha":894,"x_min":15,"x_max":879,"o":"m 578 1194 l 683 1194 l 503 1014 l 393 1014 l 213 1194 l 318 1194 l 443 1069 l 451 1069 l 578 1194 m 497 0 l 399 0 l 399 840 l 15 840 l 15 931 l 879 931 l 879 840 l 497 840 l 497 0 z "},"ť":{"ha":508,"x_min":10,"x_max":504,"o":"m 335 763 l 313 763 l 313 814 l 335 814 q 354 819 349 814 q 360 840 360 825 l 360 871 l 315 871 l 315 1040 l 414 1040 l 414 842 q 335 763 414 763 m 504 0 l 356 0 q 132 218 132 0 l 132 601 l 10 601 l 10 686 l 132 686 l 132 850 l 232 850 l 232 686 l 504 686 l 504 601 l 232 601 l 232 213 q 267 117 232 143 q 379 90 301 90 l 504 90 l 504 0 z "},"Ŧ":{"ha":894,"x_min":15,"x_max":879,"o":"m 497 0 l 399 0 l 399 463 l 165 463 l 165 553 l 399 553 l 399 840 l 15 840 l 15 931 l 879 931 l 879 840 l 497 840 l 497 553 l 731 553 l 731 463 l 497 463 l 497 0 z "},"ŧ":{"ha":529,"x_min":10,"x_max":504,"o":"m 504 0 l 356 0 q 132 218 132 0 l 132 367 l 10 367 l 10 443 l 132 443 l 132 608 l 10 608 l 10 686 l 132 686 l 132 850 l 232 850 l 232 686 l 504 686 l 504 608 l 232 608 l 232 443 l 504 443 l 504 367 l 232 367 l 232 213 q 267 117 232 143 q 379 90 301 90 l 504 90 l 504 0 z "},"Ũ":{"ha":992,"x_min":76,"x_max":915,"o":"m 364 1039 l 294 1039 l 294 1088 q 392 1197 294 1197 q 492 1157 433 1197 l 521 1136 q 588 1107 560 1107 q 629 1160 629 1107 l 629 1194 l 697 1194 l 697 1146 q 674 1065 697 1096 q 606 1035 650 1035 q 503 1076 557 1035 l 468 1097 q 404 1126 435 1126 q 364 1076 364 1126 l 364 1039 m 803 90 q 748 38 803 90 q 496 -14 692 -14 q 188 90 300 -14 q 76 385 76 194 l 76 931 l 175 931 l 175 389 q 253 157 175 231 q 496 83 332 83 q 738 157 660 83 q 817 389 817 231 l 817 931 l 915 931 l 915 385 q 803 90 915 194 z "},"ũ":{"ha":842,"x_min":79,"x_max":760,"o":"m 286 803 l 218 803 l 218 853 q 315 961 218 961 q 414 921 358 961 l 444 900 q 510 871 481 871 q 551 924 551 871 l 551 958 l 621 958 l 621 910 q 597 828 621 858 q 528 799 574 799 q 425 840 482 799 l 392 861 q 328 890 353 890 q 286 842 286 890 l 286 803 m 371 -14 q 155 71 231 -14 q 79 285 79 156 l 79 686 l 178 686 l 178 300 q 406 75 178 75 q 596 147 531 75 q 661 353 661 219 l 661 686 l 760 686 l 760 0 l 671 0 l 671 214 l 664 214 q 568 52 644 118 q 371 -14 492 -14 z "},"Ū":{"ha":992,"x_min":76,"x_max":915,"o":"m 683 1069 l 308 1069 l 308 1142 l 683 1142 l 683 1069 m 803 90 q 748 38 803 90 q 496 -14 692 -14 q 188 90 300 -14 q 76 385 76 194 l 76 931 l 175 931 l 175 389 q 253 157 175 231 q 496 83 332 83 q 738 157 660 83 q 817 389 817 231 l 817 931 l 915 931 l 915 385 q 803 90 915 194 z "},"ū":{"ha":842,"x_min":79,"x_max":760,"o":"m 607 832 l 232 832 l 232 904 l 607 904 l 607 832 m 371 -14 q 155 71 231 -14 q 79 285 79 156 l 79 686 l 178 686 l 178 300 q 406 75 178 75 q 596 147 531 75 q 661 353 661 219 l 661 686 l 760 686 l 760 0 l 671 0 l 671 214 l 664 214 q 568 52 644 118 q 371 -14 492 -14 z "},"Ŭ":{"ha":992,"x_min":76,"x_max":915,"o":"m 627 1042 q 602 1021 627 1042 q 496 1000 578 1000 q 365 1042 414 1000 q 315 1154 315 1083 l 315 1168 l 390 1168 l 390 1154 q 496 1067 390 1067 q 577 1088 553 1067 q 601 1154 601 1110 l 601 1168 l 676 1168 l 676 1154 q 627 1042 676 1083 m 803 90 q 748 38 803 90 q 496 -14 692 -14 q 188 90 300 -14 q 76 385 76 194 l 76 931 l 175 931 l 175 389 q 253 157 175 231 q 496 83 332 83 q 738 157 660 83 q 817 389 817 231 l 817 931 l 915 931 l 915 385 q 803 90 915 194 z "},"ŭ":{"ha":842,"x_min":79,"x_max":760,"o":"m 551 806 q 526 785 551 806 q 419 764 501 764 q 288 806 338 764 q 239 918 239 847 l 239 950 l 314 950 l 314 918 q 339 852 314 874 q 419 831 364 831 q 501 851 478 831 q 525 918 525 872 l 525 950 l 600 950 l 600 918 q 551 806 600 847 m 371 -14 q 155 71 231 -14 q 79 285 79 156 l 79 686 l 178 686 l 178 300 q 406 75 178 75 q 596 147 531 75 q 661 353 661 219 l 661 686 l 760 686 l 760 0 l 671 0 l 671 214 l 664 214 q 568 52 644 118 q 371 -14 492 -14 z "},"Ů":{"ha":992,"x_min":76,"x_max":915,"o":"m 601 1013 q 581 995 601 1013 q 496 978 561 978 q 390 1013 431 978 q 350 1107 350 1049 q 390 1201 350 1165 q 496 1236 431 1236 q 601 1201 561 1236 q 642 1107 642 1165 q 601 1013 642 1049 m 410 1107 q 410 1069 410 1107 q 496 1032 410 1032 q 582 1107 582 1032 q 496 1182 582 1182 q 410 1107 410 1182 m 803 90 q 748 38 803 90 q 496 -14 692 -14 q 188 90 300 -14 q 76 385 76 194 l 76 931 l 175 931 l 175 389 q 253 157 175 231 q 496 83 332 83 q 738 157 660 83 q 817 389 817 231 l 817 931 l 915 931 l 915 385 q 803 90 915 194 z "},"ů":{"ha":842,"x_min":79,"x_max":760,"o":"m 519 789 q 500 772 519 789 q 419 756 481 756 q 320 789 358 756 q 282 878 282 822 q 320 967 282 933 q 419 1000 358 1000 q 519 967 481 1000 q 557 878 557 933 q 519 789 557 822 m 335 878 q 335 841 335 878 q 419 804 335 804 q 504 878 504 804 q 419 951 504 951 q 335 878 335 951 m 371 -14 q 155 71 231 -14 q 79 285 79 156 l 79 686 l 178 686 l 178 300 q 406 75 178 75 q 596 147 531 75 q 661 353 661 219 l 661 686 l 760 686 l 760 0 l 671 0 l 671 214 l 664 214 q 568 52 644 118 q 371 -14 492 -14 z "},"Ű":{"ha":992,"x_min":76,"x_max":915,"o":"m 638 1014 l 543 1014 l 682 1186 l 806 1186 l 638 1014 m 408 1014 l 314 1014 l 453 1186 l 576 1186 l 408 1014 m 803 90 q 748 38 803 90 q 496 -14 692 -14 q 188 90 300 -14 q 76 385 76 194 l 76 931 l 175 931 l 175 389 q 253 157 175 231 q 496 83 332 83 q 738 157 660 83 q 817 389 817 231 l 817 931 l 915 931 l 915 385 q 803 90 915 194 z "},"ű":{"ha":842,"x_min":79,"x_max":760,"o":"m 576 778 l 481 778 l 621 958 l 744 958 l 576 778 m 347 778 l 253 778 l 392 958 l 515 958 l 347 778 m 371 -14 q 155 71 231 -14 q 79 285 79 156 l 79 686 l 178 686 l 178 300 q 406 75 178 75 q 596 147 531 75 q 661 353 661 219 l 661 686 l 760 686 l 760 0 l 671 0 l 671 214 l 664 214 q 568 52 644 118 q 371 -14 492 -14 z "},"Ų":{"ha":992,"x_min":76,"x_max":915,"o":"m 496 -14 q 188 90 300 -14 q 76 385 76 194 l 76 931 l 175 931 l 175 389 q 253 157 175 231 q 496 83 332 83 q 738 157 660 83 q 817 389 817 231 l 817 931 l 915 931 l 915 385 q 828 117 915 218 q 585 -8 740 15 l 532 -75 q 497 -144 497 -118 q 560 -192 497 -192 l 644 -192 l 644 -260 l 544 -260 q 417 -165 417 -260 q 427 -119 417 -142 q 447 -85 438 -97 q 478 -50 457 -74 l 510 -14 l 496 -14 z "},"ų":{"ha":842,"x_min":79,"x_max":814,"o":"m 371 -14 q 155 71 231 -14 q 79 285 79 156 l 79 686 l 178 686 l 178 300 q 406 75 178 75 q 596 147 531 75 q 661 353 661 219 l 661 686 l 760 686 l 760 0 l 701 -75 q 667 -144 667 -118 q 729 -192 667 -192 l 814 -192 l 814 -260 l 715 -260 q 586 -165 586 -260 q 597 -119 586 -142 q 617 -85 607 -97 q 647 -50 626 -74 l 692 0 l 671 0 l 671 214 l 664 214 q 568 52 644 118 q 371 -14 492 -14 z "},"Ŵ":{"ha":1431,"x_min":22,"x_max":1407,"o":"m 586 1014 l 481 1014 l 661 1194 l 769 1194 l 951 1014 l 844 1014 l 719 1139 l 711 1139 l 586 1014 m 439 0 l 292 0 l 22 931 l 132 931 l 317 289 l 365 99 l 374 99 l 429 289 l 646 931 l 785 931 l 1024 289 l 1086 99 l 1093 99 l 1136 289 l 1299 931 l 1407 931 l 1167 0 l 1019 0 l 793 606 l 719 822 l 710 822 l 644 606 l 439 0 z "},"ŵ":{"ha":1188,"x_min":14,"x_max":1175,"o":"m 464 778 l 358 778 l 539 958 l 649 958 l 829 778 l 724 778 l 599 903 l 590 903 l 464 778 m 356 0 l 233 0 l 14 686 l 115 686 l 261 232 l 296 86 l 304 86 l 351 240 l 532 686 l 658 686 l 838 240 l 885 88 l 893 88 l 926 232 l 1074 686 l 1175 686 l 953 0 l 829 0 l 651 449 l 597 601 l 590 601 l 536 449 l 356 0 z "},"Ŷ":{"ha":900,"x_min":-6,"x_max":906,"o":"m 319 1014 l 215 1014 l 396 1194 l 504 1194 l 685 1014 l 579 1014 l 454 1139 l 446 1139 l 319 1014 m 499 0 l 399 0 l 399 331 l -6 931 l 115 931 l 371 551 l 447 438 l 456 438 l 531 551 l 785 931 l 906 931 l 499 331 l 499 0 z "},"ŷ":{"ha":785,"x_min":7,"x_max":774,"o":"m 260 778 l 154 778 l 335 958 l 443 958 l 625 778 l 518 778 l 393 903 l 385 903 l 260 778 m 174 -236 l 88 -236 l 88 -146 l 192 -146 q 268 -129 243 -146 q 314 -68 293 -112 l 347 1 l 7 686 l 115 686 l 317 278 l 393 110 l 401 110 l 475 279 l 665 686 l 774 686 l 401 -96 q 313 -205 364 -174 q 174 -236 261 -236 z "},"Ÿ":{"ha":900,"x_min":-6,"x_max":906,"o":"m 613 1014 l 517 1014 l 517 1178 l 613 1178 l 613 1014 m 383 1014 l 288 1014 l 288 1178 l 383 1178 l 383 1014 m 499 0 l 399 0 l 399 331 l -6 931 l 115 931 l 371 551 l 447 438 l 456 438 l 531 551 l 785 931 l 906 931 l 499 331 l 499 0 z "},"Ź":{"ha":918,"x_min":50,"x_max":868,"o":"m 514 1014 l 410 1014 l 583 1186 l 719 1186 l 514 1014 m 868 0 l 50 0 l 50 90 l 707 833 l 707 840 l 72 840 l 72 931 l 851 931 l 851 840 l 188 97 l 188 90 l 868 90 l 868 0 z "},"ź":{"ha":768,"x_min":36,"x_max":732,"o":"m 435 778 l 333 778 l 507 958 l 640 958 l 435 778 m 732 0 l 36 0 l 36 86 l 433 465 l 578 593 l 578 600 l 433 597 l 57 597 l 57 686 l 711 686 l 711 599 l 288 199 l 164 92 l 164 85 l 288 88 l 732 88 l 732 0 z "},"Ż":{"ha":918,"x_min":50,"x_max":868,"o":"m 510 1014 l 411 1014 l 411 1178 l 510 1178 l 510 1014 m 868 0 l 50 0 l 50 90 l 707 833 l 707 840 l 72 840 l 72 931 l 851 931 l 851 840 l 188 97 l 188 90 l 868 90 l 868 0 z "},"ż":{"ha":768,"x_min":36,"x_max":732,"o":"m 433 778 l 335 778 l 335 942 l 433 942 l 433 778 m 732 0 l 36 0 l 36 86 l 433 465 l 578 593 l 578 600 l 433 597 l 57 597 l 57 686 l 711 686 l 711 599 l 288 199 l 164 92 l 164 85 l 288 88 l 732 88 l 732 0 z "},"Ž":{"ha":918,"x_min":50,"x_max":868,"o":"m 590 1194 l 696 1194 l 515 1014 l 406 1014 l 225 1194 l 331 1194 l 456 1069 l 464 1069 l 590 1194 m 868 0 l 50 0 l 50 90 l 707 833 l 707 840 l 72 840 l 72 931 l 851 931 l 851 840 l 188 97 l 188 90 l 868 90 l 868 0 z "},"ž":{"ha":768,"x_min":36,"x_max":732,"o":"m 438 778 l 329 778 l 149 958 l 257 958 l 379 833 l 388 833 l 511 958 l 619 958 l 438 778 m 732 0 l 36 0 l 36 86 l 433 465 l 578 593 l 578 600 l 433 597 l 57 597 l 57 686 l 711 686 l 711 599 l 288 199 l 164 92 l 164 85 l 288 88 l 732 88 l 732 0 z "},"ƒ":{"ha":681,"x_min":-14,"x_max":694,"o":"m 56 -236 l -14 -236 l 1 -146 l 63 -146 q 177 -116 140 -146 q 226 -15 214 -86 l 303 421 l 151 421 l 167 510 l 319 510 l 353 703 q 635 931 392 931 l 694 931 l 678 840 l 615 840 q 501 810 538 840 q 453 710 465 781 l 418 510 l 621 510 l 604 421 l 403 421 l 328 -8 q 241 -181 307 -126 q 56 -236 175 -236 z "},"Ǽ":{"ha":1521,"x_min":-3,"x_max":1467,"o":"m 1167 1014 l 1063 1014 l 1236 1186 l 1372 1186 l 1167 1014 m 118 0 l -3 0 l 715 931 l 1467 931 l 1467 840 l 858 840 l 858 513 l 1446 513 l 1446 424 l 858 424 l 858 90 l 1467 90 l 1467 0 l 760 0 l 760 274 l 331 274 l 118 0 m 753 819 l 399 363 l 760 363 l 760 819 l 753 819 z "},"ǽ":{"ha":1342,"x_min":42,"x_max":1308,"o":"m 725 778 l 624 778 l 797 958 l 932 958 l 725 778 m 281 -14 q 107 33 172 -14 q 42 163 42 81 q 263 338 42 313 l 604 374 l 604 425 q 555 568 604 525 q 388 611 506 611 q 156 438 156 611 l 156 429 l 57 429 l 57 438 q 146 625 57 550 q 390 700 235 700 q 668 560 597 700 q 965 700 767 700 q 1213 615 1118 700 q 1308 379 1308 529 q 1301 315 1308 346 l 697 315 q 964 68 706 68 q 1201 228 1201 68 l 1201 238 l 1300 238 l 1300 228 q 1206 53 1300 121 q 967 -14 1111 -14 q 751 43 840 -14 q 626 203 663 100 l 622 203 q 496 42 589 97 q 281 -14 403 -14 m 964 618 q 697 376 708 618 l 1215 376 l 1215 397 q 1150 562 1215 506 q 964 618 1085 618 m 140 169 q 301 63 140 63 q 515 121 432 63 q 606 300 597 179 l 606 308 l 293 274 q 178 242 215 265 q 140 169 140 219 z "},"Ǿ":{"ha":1039,"x_min":49,"x_max":990,"o":"m 572 1014 l 469 1014 l 642 1186 l 778 1186 l 572 1014 m 518 -14 q 214 86 338 -14 l 108 -26 l 54 26 l 160 139 q 49 465 49 268 q 179 813 49 682 q 518 944 310 944 q 819 849 696 944 l 919 956 l 974 903 l 875 797 q 990 465 990 667 q 860 117 990 249 q 518 -14 729 -14 m 153 465 q 224 208 153 303 l 757 781 q 518 849 668 849 q 247 751 340 849 q 153 465 153 654 m 518 82 q 791 179 696 82 q 886 465 886 276 q 811 728 886 632 l 275 153 q 518 82 367 82 z "},"ǿ":{"ha":840,"x_min":47,"x_max":793,"o":"m 469 778 l 368 778 l 543 958 l 676 958 l 469 778 m 419 -14 q 181 60 278 -14 l 99 -24 l 56 22 l 133 103 q 47 343 47 200 q 150 600 47 500 q 419 700 253 700 q 650 633 556 700 l 721 707 l 765 663 l 697 593 q 793 343 793 494 q 690 86 793 186 q 419 -14 588 -14 m 144 343 q 194 165 144 232 l 589 571 q 419 611 524 611 q 213 541 282 611 q 144 343 144 471 m 419 75 q 627 145 558 75 q 696 343 696 215 q 636 531 696 463 l 240 122 q 419 75 307 75 z "},"Ș":{"ha":860,"x_min":43,"x_max":815,"o":"m 444 -14 q 145 71 247 -14 q 43 294 43 156 l 43 303 l 143 303 l 143 285 q 214 131 143 182 q 444 79 285 79 q 715 236 715 79 q 669 347 715 311 q 517 406 624 383 l 319 443 q 120 525 193 468 q 47 690 47 582 q 142 870 47 796 q 422 944 236 944 q 706 858 610 944 q 801 636 801 772 l 801 628 l 701 628 l 701 644 q 633 799 701 747 q 415 851 564 851 q 147 697 147 851 q 192 588 147 622 q 346 531 236 554 l 542 492 q 815 244 815 439 q 721 61 815 136 q 444 -14 626 -14 m 386 -278 l 285 -278 l 407 -97 l 536 -97 l 386 -278 z "},"ș":{"ha":736,"x_min":49,"x_max":690,"o":"m 385 -14 q 138 49 225 -14 q 51 229 51 111 l 51 232 l 150 232 l 150 224 q 204 103 150 138 q 386 68 258 68 q 547 95 500 68 q 593 183 593 122 q 559 260 593 236 q 436 297 525 283 l 253 324 q 101 379 153 338 q 49 503 49 421 q 130 647 49 593 q 353 700 211 700 q 591 637 504 700 q 678 456 678 574 l 678 453 l 579 453 l 579 460 q 528 579 579 540 q 350 618 476 618 q 194 590 242 618 q 146 501 146 563 q 178 425 146 449 q 296 389 210 401 l 464 365 q 634 306 578 349 q 690 183 690 264 q 606 38 690 89 q 385 -14 522 -14 m 293 -278 l 201 -278 l 318 -97 l 438 -97 l 293 -278 z "},"Ț":{"ha":894,"x_min":15,"x_max":879,"o":"m 497 0 l 399 0 l 399 840 l 15 840 l 15 931 l 879 931 l 879 840 l 497 840 l 497 0 m 379 -278 l 278 -278 l 400 -97 l 529 -97 l 379 -278 z "},"ț":{"ha":529,"x_min":10,"x_max":504,"o":"m 504 0 l 356 0 q 132 218 132 0 l 132 601 l 10 601 l 10 686 l 132 686 l 132 850 l 232 850 l 232 686 l 504 686 l 504 601 l 232 601 l 232 213 q 267 117 232 143 q 379 90 301 90 l 504 90 l 504 0 m 286 -278 l 194 -278 l 310 -97 l 429 -97 l 286 -278 z "},"ȷ":{"ha":267,"x_min":-82,"x_max":183,"o":"m -29 -236 l -82 -236 l -82 -156 l -24 -156 q 85 -53 85 -156 l 85 686 l 183 686 l 183 -32 q 126 -187 183 -139 q -29 -236 68 -236 z "},"̀":{"ha":444,"x_min":-22,"x_max":286,"o":"m 286 778 l 185 778 l -22 958 l 113 958 l 286 778 z "},"́":{"ha":444,"x_min":164,"x_max":471,"o":"m 265 778 l 164 778 l 338 958 l 471 958 l 265 778 z "},"̂":{"ha":665,"x_min":101,"x_max":571,"o":"m 206 778 l 101 778 l 282 958 l 390 958 l 571 778 l 465 778 l 340 903 l 332 903 l 206 778 z "},"̃":{"ha":518,"x_min":60,"x_max":463,"o":"m 128 803 l 60 803 l 60 853 q 157 961 60 961 q 257 921 199 961 l 286 900 q 351 871 322 871 q 394 924 394 871 l 394 958 l 463 958 l 463 910 q 439 828 463 858 q 369 799 415 799 q 267 840 324 799 l 233 861 q 169 890 194 890 q 128 842 128 890 l 128 803 z "},"̄":{"ha":500,"x_min":63,"x_max":438,"o":"m 438 832 l 63 832 l 63 904 l 438 904 l 438 832 z "},"̆":{"ha":467,"x_min":53,"x_max":414,"o":"m 233 764 q 102 806 151 764 q 53 918 53 847 l 53 950 l 128 950 l 128 918 q 153 852 128 874 q 233 831 178 831 q 315 851 292 831 q 339 918 339 872 l 339 950 l 414 950 l 414 918 q 364 806 414 847 q 233 764 314 764 z "},"̇":{"ha":221,"x_min":61,"x_max":160,"o":"m 160 778 l 61 778 l 61 942 l 160 942 l 160 778 z "},"̈":{"ha":481,"x_min":78,"x_max":403,"o":"m 403 778 l 307 778 l 307 942 l 403 942 l 403 778 m 174 778 l 78 778 l 78 942 l 174 942 l 174 778 z "},"̊":{"ha":378,"x_min":51,"x_max":328,"o":"m 189 756 q 90 789 128 756 q 51 878 51 822 q 90 967 51 933 q 189 1000 128 1000 q 290 967 251 1000 q 328 878 328 933 q 290 789 328 822 q 189 756 251 756 m 104 878 q 104 841 104 878 q 189 804 104 804 q 274 878 274 804 q 189 951 274 951 q 104 878 104 951 z "},"̋":{"ha":619,"x_min":156,"x_max":647,"o":"m 481 778 l 385 778 l 525 958 l 647 958 l 481 778 m 251 778 l 156 778 l 296 958 l 418 958 l 251 778 z "},"̌":{"ha":665,"x_min":101,"x_max":571,"o":"m 390 778 l 282 778 l 101 958 l 210 958 l 332 833 l 340 833 l 463 958 l 571 958 l 390 778 z "},"̒":{"ha":854,"x_min":369,"x_max":606,"o":"m 514 958 l 606 958 l 489 778 l 369 778 l 514 958 z "},"̦":{"ha":356,"x_min":18,"x_max":253,"o":"m 110 -278 l 18 -278 l 133 -97 l 253 -97 l 110 -278 z "},"̧":{"ha":349,"x_min":147,"x_max":375,"o":"m 257 -283 l 147 -283 l 147 -221 l 257 -221 q 307 -182 307 -221 q 257 -142 307 -142 l 161 -142 l 161 4 l 222 4 l 222 -79 l 257 -79 q 343 -107 311 -79 q 375 -181 375 -135 q 344 -256 375 -229 q 257 -283 313 -283 z "},"̨":{"ha":342,"x_min":64,"x_max":293,"o":"m 293 -260 l 193 -260 q 97 -235 131 -260 q 64 -165 64 -210 q 76 -118 64 -142 q 94 -85 88 -94 q 125 -50 101 -76 l 169 0 l 239 0 l 181 -75 q 144 -144 144 -118 q 207 -192 144 -192 l 293 -192 l 293 -260 z "},"̵":{"ha":888,"x_min":172,"x_max":714,"o":"m 714 743 l 172 743 l 172 824 l 714 824 l 714 743 z "},"̷":{"ha":428,"x_min":0,"x_max":428,"o":"m 428 644 l 35 422 l 0 486 l 393 710 l 428 644 z "},"̸":{"ha":817,"x_min":53,"x_max":764,"o":"m 764 664 l 97 -22 l 53 22 l 719 708 l 764 664 z "},"Ẁ":{"ha":1431,"x_min":22,"x_max":1407,"o":"m 767 1014 l 663 1014 l 457 1186 l 593 1186 l 767 1014 m 439 0 l 292 0 l 22 931 l 132 931 l 317 289 l 365 99 l 374 99 l 429 289 l 646 931 l 785 931 l 1024 289 l 1086 99 l 1093 99 l 1136 289 l 1299 931 l 1407 931 l 1167 0 l 1019 0 l 793 606 l 719 822 l 710 822 l 644 606 l 439 0 z "},"ẁ":{"ha":1188,"x_min":14,"x_max":1175,"o":"m 649 778 l 547 778 l 340 958 l 475 958 l 649 778 m 356 0 l 233 0 l 14 686 l 115 686 l 261 232 l 296 86 l 304 86 l 351 240 l 532 686 l 658 686 l 838 240 l 885 88 l 893 88 l 926 232 l 1074 686 l 1175 686 l 953 0 l 829 0 l 651 449 l 597 601 l 590 601 l 536 449 l 356 0 z "},"Ẃ":{"ha":1431,"x_min":22,"x_max":1407,"o":"m 769 1014 l 665 1014 l 839 1186 l 975 1186 l 769 1014 m 439 0 l 292 0 l 22 931 l 132 931 l 317 289 l 365 99 l 374 99 l 429 289 l 646 931 l 785 931 l 1024 289 l 1086 99 l 1093 99 l 1136 289 l 1299 931 l 1407 931 l 1167 0 l 1019 0 l 793 606 l 719 822 l 710 822 l 644 606 l 439 0 z "},"ẃ":{"ha":1188,"x_min":14,"x_max":1175,"o":"m 644 778 l 543 778 l 717 958 l 850 958 l 644 778 m 356 0 l 233 0 l 14 686 l 115 686 l 261 232 l 296 86 l 304 86 l 351 240 l 532 686 l 658 686 l 838 240 l 885 88 l 893 88 l 926 232 l 1074 686 l 1175 686 l 953 0 l 829 0 l 651 449 l 597 601 l 590 601 l 536 449 l 356 0 z "},"Ẅ":{"ha":1431,"x_min":22,"x_max":1407,"o":"m 878 1014 l 783 1014 l 783 1178 l 878 1178 l 878 1014 m 649 1014 l 554 1014 l 554 1178 l 649 1178 l 649 1014 m 439 0 l 292 0 l 22 931 l 132 931 l 317 289 l 365 99 l 374 99 l 429 289 l 646 931 l 785 931 l 1024 289 l 1086 99 l 1093 99 l 1136 289 l 1299 931 l 1407 931 l 1167 0 l 1019 0 l 793 606 l 719 822 l 710 822 l 644 606 l 439 0 z "},"ẅ":{"ha":1188,"x_min":14,"x_max":1175,"o":"m 756 778 l 661 778 l 661 942 l 756 942 l 756 778 m 526 778 l 432 778 l 432 942 l 526 942 l 526 778 m 356 0 l 233 0 l 14 686 l 115 686 l 261 232 l 296 86 l 304 86 l 351 240 l 532 686 l 658 686 l 838 240 l 885 88 l 893 88 l 926 232 l 1074 686 l 1175 686 l 953 0 l 829 0 l 651 449 l 597 601 l 590 601 l 536 449 l 356 0 z "},"Ẽ":{"ha":844,"x_min":83,"x_max":790,"o":"m 304 1039 l 235 1039 l 235 1088 q 331 1197 235 1197 q 432 1157 374 1197 l 461 1136 q 528 1107 500 1107 q 569 1160 569 1107 l 569 1194 l 638 1194 l 638 1146 q 614 1065 638 1096 q 546 1035 590 1035 q 443 1076 497 1035 l 408 1097 q 343 1126 372 1126 q 304 1076 304 1126 l 304 1039 m 790 0 l 83 0 l 83 931 l 790 931 l 790 840 l 182 840 l 182 513 l 769 513 l 769 424 l 182 424 l 182 90 l 790 90 l 790 0 z "},"ẽ":{"ha":800,"x_min":49,"x_max":753,"o":"m 267 803 l 199 803 l 199 853 q 296 961 199 961 q 396 921 338 961 l 425 900 q 490 871 464 871 q 533 924 533 871 l 533 958 l 601 958 l 601 910 q 578 828 601 858 q 508 799 554 799 q 406 840 463 799 l 372 861 q 308 890 333 890 q 267 842 267 890 l 267 803 m 410 -14 q 147 83 244 -14 q 49 343 49 179 q 147 601 49 501 q 408 700 244 700 q 658 615 563 700 q 753 379 753 529 q 746 315 753 346 l 142 315 q 408 68 150 68 q 644 228 644 68 l 644 238 l 743 238 l 743 228 q 649 53 743 121 q 410 -14 554 -14 m 407 618 q 142 376 153 618 l 660 376 l 660 397 q 594 562 660 506 q 407 618 529 618 z "},"Ỳ":{"ha":900,"x_min":-6,"x_max":906,"o":"m 500 1014 l 396 1014 l 190 1186 l 326 1186 l 500 1014 m 499 0 l 399 0 l 399 331 l -6 931 l 115 931 l 371 551 l 447 438 l 456 438 l 531 551 l 785 931 l 906 931 l 499 331 l 499 0 z "},"ỳ":{"ha":785,"x_min":7,"x_max":774,"o":"m 443 778 l 343 778 l 136 958 l 271 958 l 443 778 m 174 -236 l 88 -236 l 88 -146 l 192 -146 q 268 -129 243 -146 q 314 -68 293 -112 l 347 1 l 7 686 l 115 686 l 317 278 l 393 110 l 401 110 l 475 279 l 665 686 l 774 686 l 401 -96 q 313 -205 364 -174 q 174 -236 261 -236 z "},"Ỹ":{"ha":900,"x_min":-6,"x_max":906,"o":"m 318 1039 l 249 1039 l 249 1088 q 344 1197 249 1197 q 446 1157 388 1197 l 475 1136 q 542 1107 514 1107 q 583 1160 583 1107 l 583 1194 l 651 1194 l 651 1146 q 628 1065 651 1096 q 560 1035 604 1035 q 457 1076 511 1035 l 422 1097 q 358 1126 386 1126 q 318 1076 318 1126 l 318 1039 m 499 0 l 399 0 l 399 331 l -6 931 l 115 931 l 371 551 l 447 438 l 456 438 l 531 551 l 785 931 l 906 931 l 499 331 l 499 0 z "},"ỹ":{"ha":785,"x_min":7,"x_max":774,"o":"m 257 803 l 188 803 l 188 853 q 285 961 188 961 q 385 921 326 961 l 414 900 q 481 871 453 871 q 522 924 522 871 l 522 958 l 590 958 l 590 910 q 567 829 590 860 q 499 799 543 799 q 396 840 450 799 l 361 861 q 297 890 322 890 q 257 842 257 890 l 257 803 m 174 -236 l 88 -236 l 88 -146 l 192 -146 q 268 -129 243 -146 q 314 -68 293 -112 l 347 1 l 7 686 l 115 686 l 317 278 l 393 110 l 401 110 l 475 279 l 665 686 l 774 686 l 401 -96 q 313 -205 364 -174 q 174 -236 261 -236 z "},"–":{"ha":647,"x_min":42,"x_max":606,"o":"m 606 363 l 42 363 l 42 450 l 606 450 l 606 363 z "},"—":{"ha":1038,"x_min":42,"x_max":996,"o":"m 996 363 l 42 363 l 42 450 l 996 450 l 996 363 z "},"‘":{"ha":206,"x_min":42,"x_max":165,"o":"m 136 972 l 165 972 l 165 911 l 138 911 q 116 906 122 911 q 110 882 110 900 l 110 849 l 164 849 l 164 657 l 42 657 l 42 881 q 136 972 42 972 z "},"’":{"ha":206,"x_min":40,"x_max":164,"o":"m 69 615 l 40 615 l 40 675 l 68 675 q 96 706 96 675 l 96 738 l 42 738 l 42 931 l 164 931 l 164 707 q 69 615 164 615 z "},"‚":{"ha":340,"x_min":40,"x_max":164,"o":"m 69 -122 l 40 -122 l 40 -62 l 68 -62 q 90 -57 83 -62 q 96 -33 96 -51 l 96 0 l 42 0 l 42 193 l 164 193 l 164 -32 q 69 -122 164 -122 z "},"“":{"ha":397,"x_min":42,"x_max":357,"o":"m 136 972 l 165 972 l 165 911 l 138 911 q 116 906 122 911 q 110 882 110 900 l 110 849 l 164 849 l 164 657 l 42 657 l 42 881 q 136 972 42 972 m 328 972 l 357 972 l 357 911 l 329 911 q 308 906 314 911 q 301 882 301 900 l 301 849 l 356 849 l 356 657 l 233 657 l 233 881 q 328 972 233 972 z "},"”":{"ha":397,"x_min":40,"x_max":356,"o":"m 260 615 l 232 615 l 232 675 l 260 675 q 288 706 288 675 l 288 738 l 233 738 l 233 931 l 356 931 l 356 707 q 260 615 356 615 m 69 615 l 40 615 l 40 675 l 68 675 q 96 706 96 675 l 96 738 l 42 738 l 42 931 l 164 931 l 164 707 q 69 615 164 615 z "},"„":{"ha":397,"x_min":40,"x_max":356,"o":"m 69 -122 l 40 -122 l 40 -62 l 68 -62 q 90 -57 83 -62 q 96 -33 96 -51 l 96 0 l 42 0 l 42 193 l 164 193 l 164 -32 q 69 -122 164 -122 m 260 -122 l 232 -122 l 232 -62 l 260 -62 q 281 -57 275 -62 q 288 -33 288 -51 l 288 0 l 233 0 l 233 193 l 356 193 l 356 -32 q 260 -122 356 -122 z "},"†":{"ha":674,"x_min":28,"x_max":646,"o":"m 386 0 l 288 0 l 288 617 l 28 617 l 28 701 l 288 701 l 288 931 l 386 931 l 386 701 l 646 701 l 646 617 l 386 617 l 386 0 z "},"‡":{"ha":674,"x_min":28,"x_max":646,"o":"m 386 0 l 288 0 l 288 228 l 28 228 l 28 313 l 288 313 l 288 617 l 28 617 l 28 701 l 288 701 l 288 931 l 386 931 l 386 701 l 646 701 l 646 617 l 386 617 l 386 313 l 646 313 l 646 228 l 386 228 l 386 0 z "},"•":{"ha":365,"x_min":38,"x_max":328,"o":"m 285 360 q 264 341 285 360 q 182 321 243 321 q 79 360 121 321 q 38 465 38 400 q 79 570 38 531 q 182 610 121 610 q 285 570 243 610 q 328 465 328 531 q 285 360 328 400 z "},"…":{"ha":733,"x_min":51,"x_max":682,"o":"m 174 0 l 51 0 l 51 193 l 174 193 l 174 0 m 428 0 l 306 0 l 306 193 l 428 193 l 428 0 m 682 -1 l 560 -1 l 560 192 l 682 192 l 682 -1 z "},"‰":{"ha":1640,"x_min":35,"x_max":1606,"o":"m 267 483 q 96 551 157 483 q 35 715 35 618 q 96 879 35 813 q 267 946 157 946 q 439 879 378 946 q 500 715 500 813 q 439 551 500 618 q 267 483 378 483 m 206 0 l 107 0 l 897 931 l 996 931 l 206 0 m 267 556 q 422 715 422 556 q 267 874 422 874 q 113 715 113 874 q 267 556 113 556 m 1374 -14 q 1201 53 1263 -14 q 1140 217 1140 119 q 1201 381 1140 314 q 1374 447 1263 447 q 1544 381 1483 447 q 1606 217 1606 314 q 1544 53 1606 119 q 1374 -14 1483 -14 m 836 -14 q 664 53 725 -14 q 603 217 603 119 q 664 381 603 314 q 836 447 725 447 q 1007 381 946 447 q 1068 217 1068 314 q 1007 53 1068 119 q 836 -14 946 -14 m 1374 58 q 1528 217 1528 58 q 1374 375 1528 375 q 1218 217 1218 375 q 1374 58 1218 58 m 836 58 q 990 217 990 58 q 836 375 990 375 q 681 217 681 375 q 836 58 681 58 z "},"‹":{"ha":340,"x_min":21,"x_max":299,"o":"m 21 474 l 299 674 l 299 571 l 93 428 l 93 419 l 299 276 l 299 175 l 21 374 l 21 474 z "},"›":{"ha":340,"x_min":42,"x_max":319,"o":"m 319 374 l 42 175 l 42 276 l 247 419 l 247 428 l 42 571 l 42 674 l 319 474 l 319 374 z "},"⁄":{"ha":244,"x_min":-322,"x_max":567,"o":"m -224 0 l -322 0 l 468 931 l 567 931 l -224 0 z "},"⁰":{"ha":549,"x_min":28,"x_max":521,"o":"m 455 520 q 422 486 455 520 q 275 451 389 451 q 94 520 161 451 q 28 697 28 589 q 94 875 28 806 q 275 944 161 944 q 455 875 389 944 q 521 697 521 806 q 455 520 521 589 m 108 697 q 275 524 108 524 q 442 697 442 524 q 275 872 442 872 q 108 697 108 872 z "},"⁴":{"ha":532,"x_min":14,"x_max":497,"o":"m 407 465 l 329 465 l 329 560 l 14 560 l 14 618 l 318 931 l 407 931 l 407 631 l 497 631 l 497 560 l 407 560 l 407 465 m 114 631 l 329 631 l 329 843 l 322 843 l 114 638 l 114 631 z "},"€":{"ha":903,"x_min":14,"x_max":861,"o":"m 690 338 l 265 338 q 606 90 317 90 l 861 90 l 861 0 l 606 0 q 313 90 429 0 q 161 338 196 179 l 14 338 l 14 408 l 151 408 q 149 465 149 444 q 151 522 149 486 l 14 522 l 14 592 l 161 592 q 313 841 196 751 q 606 931 429 931 l 861 931 l 861 840 l 606 840 q 264 592 318 840 l 690 592 l 690 522 l 256 522 q 253 465 253 486 q 256 408 253 444 l 690 408 l 690 338 z "},"₹":{"ha":853,"x_min":63,"x_max":794,"o":"m 754 0 l 625 0 l 406 268 q 313 347 363 322 q 188 372 264 372 l 63 372 l 63 457 l 353 457 q 492 494 444 457 q 543 614 539 531 l 63 614 l 63 693 l 543 693 l 543 851 l 63 851 l 63 931 l 794 931 l 794 851 l 642 851 l 642 693 l 794 693 l 794 614 l 642 614 q 569 453 635 510 q 386 399 504 397 l 386 390 q 438 366 413 383 q 478 334 464 349 q 521 288 492 319 l 754 0 z "},"™":{"ha":771,"x_min":7,"x_max":743,"o":"m 429 651 l 371 651 l 371 931 l 449 931 l 556 721 l 560 721 l 665 931 l 743 931 l 743 651 l 685 651 l 685 789 l 688 849 l 682 849 l 589 672 l 526 672 l 432 849 l 428 849 l 429 790 l 429 651 m 196 651 l 135 651 l 135 874 l 7 874 l 7 931 l 322 931 l 322 874 l 196 874 l 196 651 z "},"−":{"ha":644,"x_min":51,"x_max":593,"o":"m 593 424 l 51 424 l 51 507 l 593 507 l 593 424 z "},"≈":{"ha":690,"x_min":51,"x_max":639,"o":"m 138 254 l 51 254 l 51 354 q 97 458 51 428 l 97 465 l 51 465 l 51 572 q 80 667 51 629 q 175 704 108 704 q 234 692 203 704 q 281 669 265 679 q 335 633 296 660 l 393 600 q 500 547 464 547 q 554 611 554 547 l 554 697 l 639 697 l 639 597 q 594 492 639 525 l 594 486 l 639 486 l 639 386 q 611 289 639 328 q 521 250 583 250 q 503 251 513 250 q 485 253 493 253 q 469 258 478 254 q 453 263 460 261 q 438 270 447 265 q 424 277 428 275 q 409 285 419 279 q 395 292 399 290 q 381 301 392 294 q 367 310 369 308 l 299 350 q 193 404 229 404 q 138 340 138 404 l 138 254 m 508 333 q 564 400 564 333 l 564 479 q 510 463 544 463 q 456 473 483 463 q 415 492 429 483 q 368 522 401 500 l 296 565 q 281 576 292 568 q 267 586 271 583 q 255 594 264 589 q 241 603 246 600 q 228 610 236 606 q 214 615 219 614 q 201 618 208 617 q 186 619 193 619 q 128 553 128 619 l 128 475 q 189 490 151 490 q 238 479 213 490 q 279 458 264 468 q 325 425 294 447 l 389 390 q 406 379 393 388 q 423 367 418 371 q 439 357 428 364 q 457 347 450 350 q 473 340 464 344 q 491 335 482 336 q 508 333 500 333 z "},"≠":{"ha":644,"x_min":51,"x_max":593,"o":"m 593 278 l 240 278 l 149 146 l 83 186 l 147 278 l 51 278 l 51 363 l 206 363 l 347 568 l 51 568 l 51 653 l 406 653 l 497 785 l 563 744 l 499 653 l 593 653 l 593 568 l 440 568 l 299 363 l 593 363 l 593 278 z "},"≤":{"ha":635,"x_min":42,"x_max":583,"o":"m 583 108 l 42 108 l 42 193 l 496 193 l 496 200 l 42 410 l 42 521 l 583 765 l 583 667 l 133 469 l 133 461 l 583 264 l 583 108 z "},"≥":{"ha":635,"x_min":51,"x_max":593,"o":"m 593 108 l 51 108 l 51 264 l 501 461 l 501 469 l 51 667 l 51 765 l 593 521 l 593 410 l 139 200 l 139 193 l 593 193 l 593 108 z "},"ﬀ":{"ha":1007,"x_min":22,"x_max":993,"o":"m 231 0 l 132 0 l 132 601 l 22 601 l 22 686 l 133 686 q 219 869 142 807 q 432 931 297 931 l 507 931 l 507 853 l 418 853 q 273 815 319 853 q 231 686 226 776 l 507 686 l 507 601 l 231 601 l 231 0 m 718 0 l 618 0 l 618 601 l 508 601 l 508 686 l 619 686 q 707 869 629 807 q 919 931 785 931 l 993 931 l 993 853 l 904 853 q 760 815 807 853 q 718 686 714 776 l 993 686 l 993 601 l 718 601 l 718 0 z "},"ﬁ":{"ha":785,"x_min":22,"x_max":701,"o":"m 231 0 l 132 0 l 132 601 l 22 601 l 22 686 l 133 686 q 219 869 142 807 q 432 931 297 931 l 507 931 l 507 853 l 418 853 q 273 815 319 853 q 231 686 226 776 l 507 686 l 507 601 l 231 601 l 231 0 m 701 774 l 603 774 l 603 931 l 701 931 l 701 774 m 701 0 l 603 0 l 603 686 l 701 686 l 701 0 z "},"ﬂ":{"ha":785,"x_min":22,"x_max":701,"o":"m 231 0 l 132 0 l 132 601 l 22 601 l 22 686 l 133 686 q 219 869 142 807 q 432 931 297 931 l 507 931 l 507 853 l 418 853 q 273 815 319 853 q 231 686 226 776 l 507 686 l 507 601 l 231 601 l 231 0 m 701 0 l 603 0 l 603 931 l 701 931 l 701 0 z "},"ﬃ":{"ha":1271,"x_min":22,"x_max":1189,"o":"m 231 0 l 132 0 l 132 601 l 22 601 l 22 686 l 133 686 q 219 869 142 807 q 432 931 297 931 l 507 931 l 507 853 l 418 853 q 273 815 319 853 q 231 686 226 776 l 507 686 l 507 601 l 231 601 l 231 0 m 718 0 l 618 0 l 618 601 l 508 601 l 508 686 l 619 686 q 707 869 629 807 q 919 931 785 931 l 993 931 l 993 853 l 904 853 q 760 815 807 853 q 718 686 714 776 l 993 686 l 993 601 l 718 601 l 718 0 m 1189 774 l 1090 774 l 1090 931 l 1189 931 l 1189 774 m 1189 0 l 1090 0 l 1090 686 l 1189 686 l 1189 0 z "},"ﬄ":{"ha":1271,"x_min":22,"x_max":1189,"o":"m 231 0 l 132 0 l 132 601 l 22 601 l 22 686 l 133 686 q 219 869 142 807 q 432 931 297 931 l 507 931 l 507 853 l 418 853 q 273 815 319 853 q 231 686 226 776 l 507 686 l 507 601 l 231 601 l 231 0 m 718 0 l 618 0 l 618 601 l 508 601 l 508 686 l 619 686 q 707 869 629 807 q 919 931 785 931 l 993 931 l 993 853 l 904 853 q 760 815 807 853 q 718 686 714 776 l 993 686 l 993 601 l 718 601 l 718 0 m 1189 0 l 1090 0 l 1090 931 l 1189 931 l 1189 0 z "}}}
